<?xml version="1.0" encoding="utf-8"?>
<!-- Generator: Adobe Illustrator 24.3.0, SVG Export Plug-In . SVG Version: 6.00 Build 0)  -->
<svg version="1.2" baseProfile="tiny" id="图层_1"
	 xmlns="http://www.w3.org/2000/svg" xmlns:xlink="http://www.w3.org/1999/xlink" x="0px" y="0px" viewBox="0 0 1366 768"
	 overflow="visible" xml:space="preserve">
<g>
	<path d="M105.8,237.2c22.1,8,38,20.7,47.7,38.2c0,0.5,0.5,2.3,1.4,5.5h10.9l6.8,1.4c-1.8-13-2.7-20.2-2.7-21.8
		c0.7-8.2,2-12.3,4.1-12.3v2.7c0,3.1-0.5,5.3-1.4,6.8l4.1,34.1c-0.9,1.7-1.4,3.1-1.4,4.1H174c0-8.2-1.4-12.3-4.1-12.3
		c-3.5-0.9-7.2-1.4-10.9-1.4h-8.2c0-4.8-5-10.2-15-16.4v-5.5l8.2,6.8v-1.4c-15.9-15-28.6-24.1-38.2-27.3c0,8.9-7.3,23-21.8,42.3
		c-10.9,19.4-16.4,30.8-16.4,34.1c0,1.8,1.8,2.7,5.5,2.7v1.4h-2.7c7.3,10,13.6,15,19.1,15l-15-16.4v-1.4h1.4l16.4,15h1.4
		c1.8,0,2.7-0.9,2.7-2.7c-1.3,0-6.3-5-15-15c1,0,2.4-0.5,4.1-1.4c0,1.8,5,7.7,15,17.7c-1.3,0-2.6,1.4-4.1,4.1v1.4
		c0,1.1,4.1,5.2,12.3,12.3V345h1.4v4.1l-1.4,2.7c0.9,1.6,1.4,3.4,1.4,5.5v4.1c-23.6,5.2-35.5,10.2-35.5,15c0,2.7,1.8,4.1,5.5,4.1
		c0,0.9-0.5,1.4-1.4,1.4c0,3,4.1,7,12.3,12.3v-1.4c-1.1,0-4.8-3.6-10.9-10.9h2.7c10.7,10.9,17.5,16.4,20.5,16.4
		c1.6,0.9,3.4,1.4,5.5,1.4c-7.6-10-14-15-19.1-15v-1.4h8.2c0,1.3,5.5,6.7,16.4,16.4l2.7-1.4c0,3,1.4,8.9,4.1,17.7l-2.7,1.4h-1.4
		c0-0.9,0.5-1.4,1.4-1.4c0-9.1-3.6-13.6-10.9-13.6c-14.2,0-25.6-7.3-34.1-21.8v-2.7c0-7.7,11.4-13.6,34.1-17.7v-5.5
		c-8.2-6.2-12.3-12.6-12.3-19.1l-6.8,1.4h-1.4c-6.9,0-13.8-6.4-20.5-19.1v-5.5c0.7-5.9,13-27.7,36.8-65.5
		C103.1,240.4,104,237.2,105.8,237.2z M108.6,241.3c17.3,8.2,25.9,15.9,25.9,23.2C106.9,299,85,316.3,69,316.3v-1.4
		c2.2-8.9,14.4-30.7,36.8-65.5C105.8,244,106.7,241.3,108.6,241.3z M176.8,246.7c18.2,0,27.3,3.6,27.3,10.9
		c21.3-2.7,33.1-4.1,35.5-4.1c1.8,3,2.7,5.7,2.7,8.2c0,8-12.7,14.8-38.2,20.5c0,7.3-1.4,17.3-4.1,30c14.3-7.3,26.6-11.4,36.8-12.3
		c2.7,3.5,4.1,7.6,4.1,12.3c-6.5,6.3-14.7,13.1-24.6,20.5c5.9,0.3,15.5,4,28.6,10.9v1.4c-0.5,2.8-8.6,11-24.6,24.6
		c37.7-6.4,58.7-9.5,62.7-9.5c11.9,0,19.2,8.2,21.8,24.6v2.7c-4.5,26.9-6.8,43.8-6.8,50.5v1.4c4.5,4.8,6.8,8,6.8,9.5
		c0,9.1-24.6,13.6-73.7,13.6c-21.4,0-34.6-4.5-39.6-13.6c1.8-3.5,2.7-8.5,2.7-15c0-15.9-1.4-31.4-4.1-46.4l4.1-17.7h5.5
		c3.6,0,9.5,11.4,17.7,34.1l6.8-1.4h45c1.8,0.2,2.7,1.1,2.7,2.7v2.7c0,5.5-16.8,9.5-50.5,12.3c-1.1,11.6-2,18-2.7,19.1
		c12.3-0.9,21.4-1.4,27.3-1.4h30v-46.4l1.4-16.4c-3,1.8-5.7,2.7-8.2,2.7c-18.4,0-32.5,0.9-42.3,2.7c-9.1,0-15.5-6.8-19.1-20.5v-9.5
		c0-4.8,1.4-8.9,4.1-12.3v-1.4h-2.7c-6.1,5-16.1,8.6-30,10.9c-3.3,0-7.4-5.5-12.3-16.4c-20,5.2-30,8.4-30,9.5
		c5.5,1.1,8.2,2.5,8.2,4.1v13.6h25.9c1.4,0,2.7,1.4,4.1,4.1v4.1c0,2.7-10,6.8-30,12.3c0,3.5-1.8,14.4-5.5,32.7
		c9.1-2.7,19.5-4.1,31.4-4.1h4.1v4.1c-25.6,19.1-47.4,28.6-65.5,28.6c-6.4-0.6-9.5-3.3-9.5-8.2c0-3.3,7.3-8.8,21.8-16.4
		c-5-21.8-8.2-32.7-9.5-32.7h-1.4c-23.6-0.7-35.5-3-35.5-6.8c0-4.1,11.4-8.6,34.1-13.6h1.4v-5.5c0-2-0.5-3.9-1.4-5.5
		c0.9-1.6,1.4-3.4,1.4-5.5v-5.5c-9.1-1.1-13.6-3-13.6-5.5c0-8.6,20.9-14.5,62.7-17.7c5.5,0,8.2,3.2,8.2,9.5c10-4.4,15-7.6,15-9.5
		c-4.5-22.4-7.7-42.4-9.5-60C175.9,252.1,176.8,248.4,176.8,246.7z M104.5,298.6c1.8,0,6.4,4.5,13.6,13.6c4.1,3.6,7.3,5.5,9.5,5.5
		v2.7c-5.8,0-14,2.3-24.6,6.8l1.4-2.7c-1.3,0-6.3-5-15-15l2.7-1.4c0,1.3,5,6.3,15,15h1.4c1.8,0,2.7-0.9,2.7-2.7
		c-9.1-9.1-14.6-13.6-16.4-13.6v-1.4c1,0,2.4-0.5,4.1-1.4c0,1.3,5,6.3,15,15c1.4,0,2.7-1.4,4.1-4.1c-1.3,0-6.3-5-15-15
		C104,299.9,104.5,299.5,104.5,298.6z M251.8,230.4h2.7c10.3,0.3,21.7,6.3,34.1,17.7c2.7-5.8,6.8-10.8,12.3-15
		c13,0,27.1,10.9,42.3,32.7v6.8c0,6.1-6.4,13.4-19.1,21.8v1.4c15.5,7.8,23.2,16,23.2,24.6c-7,20-18,30-32.7,30h-10.9
		c-13.3,0-28.3-10.9-45-32.7l1.4,2.7v4.1c0,4.4-3.6,10.3-10.9,17.7v1.4c9.1,5.1,13.6,10.1,13.6,15c2.3,0,8.2-0.9,17.7-2.7
		c16.3,0,30.8,12.3,43.7,36.8v17.7c0,6.4-2.3,20-6.8,40.9c4.5,2.8,6.8,8.3,6.8,16.4c-4.1,10-22.3,15-54.6,15h-16.4
		c-36.1,0-57.5-10.9-64.1-32.7v-1.4l1.4-13.6H189c-24.1,17.3-44.6,25.9-61.4,25.9c-15.8-1.8-25.8-10.9-30-27.3v-2.7H99
		c3.2,11.1,9.1,18.9,17.7,23.2v-1.4c-1.1,0-5.2-4.1-12.3-12.3h1.4c1.4,0,7.7,5.5,19.1,16.4h6.8l-13.6-15l2.7-1.4h2.7l-1.4,2.7
		l15,13.6h1.4c1.8,0,2.7-0.9,2.7-2.7c-1.3,0-6.3-5-15-15h4.1l16.4,15h1.4c1.8,0,2.7-0.9,2.7-2.7c-1.3,0-6.3-5-15-15
		c1,0,2.4-0.5,4.1-1.4c0,2.5,5,8,15,16.4c1.8-0.9,3.2-1.4,4.1-1.4l-15-16.4v-1.4h1.4l16.4,15h1.4c1.8,0,2.7-0.9,2.7-2.7l-13.6-15
		v-1.4h1.4l16.4,15c1.8,0,2.7-0.9,2.7-2.7l-13.6-15c0.3-1.8,1.2-2.7,2.7-2.7c0,2.5,5,8,15,16.4c1.4,0,2.7-1.4,4.1-4.1
		c-9.1-9.1-14.6-13.6-16.4-13.6c0.3-1.8,1.2-2.7,2.7-2.7l16.4,15h1.4c1.8,0,2.7-0.9,2.7-2.7c-1.3,0-6.7-5.5-16.4-16.4
		c1,0,2.4-0.5,4.1-1.4c0,2.5,5,8,15,16.4l1.4-2.7v-2.7c0-1.2-4.5-5.8-13.6-13.6c0,0.9-0.5,1.4-1.4,1.4c0-3.6-0.9-5.5-2.7-5.5h-13.6
		c0-1.8-5-7.7-15-17.7v-2.7l16.4,15c0-2,0.5-3.9,1.4-5.5c-9.1-9.1-14.6-13.6-16.4-13.6c0.3-1.8,1.2-2.7,2.7-2.7
		c10,10,15.9,15,17.7,15c1.8-0.9,3.2-1.4,4.1-1.4l-13.6-15v-1.4h1.4l16.4,15h4.1V390l-13.6-15v-1.4h1.4l16.4,15h2.7l2.7-1.4
		c2.7,14.1,4.1,30,4.1,47.7c-0.6,8.2-1.5,12.3-2.7,12.3c0,6.1,8.2,14.8,24.6,25.9l5.5,2.7v-1.4c-1.3,0-5.8-4.5-13.6-13.6h1.4
		c1.4,0,7.7,5.5,19.1,16.4l6.8,1.4l-13.6-15h2.7l16.4,15h6.8l-13.6-15h2.7l17.7,16.4h5.5l-15-16.4h2.7l17.7,16.4h6.8
		c-10-10.5-15-15.9-15-16.4l6.8-1.4h6.8l17.7,16.4h4.1v-1.4l-13.6-15v-1.4h5.5l-1.4,2.7l15,13.6h1.4c1.8,0,2.7-0.9,2.7-2.7
		c-1.3,0-5.8-4.5-13.6-13.6v-1.4h4.1c0,1.8,4.5,7.3,13.6,16.4c1.6-0.9,3.4-1.4,5.5-1.4v-1.4l-13.6-15v-1.4h1.4l16.4,15h1.4
		c1.8,0,2.7-0.9,2.7-2.7c-1.3,0-6.3-5-15-15v-1.4h1.4l15,13.6h1.4c0-5.9-5.9-13.6-17.7-23.2l-4.1-5.5V435l15,13.6
		c0-2,0.5-3.9,1.4-5.5l-15-13.6c0,0.9-0.5,1.4-1.4,1.4v-5.5h1.4l15,13.6l1.4-6.8l-15-13.6v2.7h-1.4v-2.7c0.9-1.8,1.4-3.2,1.4-4.1
		l16.4,15v-5.5c-10-10-15-15.9-15-17.7v-5.5h1.4c0,5.1,5,11.5,15,19.1c0-3.1,0.5-5.3,1.4-6.8c-10.9-8.6-16.4-13.6-16.4-15v-4.1h1.4
		c0,3.1,5,8.1,15,15v-5.5l-15-16.4v-2.7l15,13.6c0-5.8-5-12.6-15-20.5c0,0.9-0.5,1.4-1.4,1.4c0-10.7-7.3-17.5-21.8-20.5
		c-4.9,0-14.4,1.4-28.6,4.1l1.4-2.7c-6.4-6.4-10.5-9.5-12.3-9.5c0.9-1.8,1.4-3.2,1.4-4.1l15,13.6c-1-3.8-6.5-9.7-16.4-17.7l1.4-2.7
		c-10-10.5-15-15.9-15-16.4l2.7-1.4c0,1.3,5,6.3,15,15c1.4,0,2.7-1.4,4.1-4.1c-1.3,0-6.3-5-15-15c0.3-1.8,1.2-2.7,2.7-2.7
		c0,2.5,5,8,15,16.4l1.4-2.7v-1.4l-13.6-15v-2.7l13.6,12.3v-1.4c-1.8-5.6-6.4-11-13.6-16.4c0,0.9-0.5,1.4-1.4,1.4
		c0-2.7-1.4-5-4.1-6.8c-1.1,0-7.5,1.4-19.1,4.1l1.4-2.7c-1.3,0-5.8-4.5-13.6-13.6v-2.7l16.4,15c1.8-0.9,3.2-1.4,4.1-1.4l-13.6-15
		v-1.4h1.4c0.5,0,5.9,5,16.4,15h2.7c1.8,0,2.7-0.9,2.7-2.7c-1.3,0-5.8-4.5-13.6-13.6v-1.4h1.4l16.4,15h4.1v-1.4l-13.6-15v-1.4h1.4
		l16.4,15l2.7-1.4c2.7,13.3,9.5,25.6,20.5,36.8c1.1,0,6.6,5,16.4,15c3,2.2,6.6,4,10.9,5.5V345c-1.3,0-5.8-4.5-13.6-13.6h16.4
		c0,1.8,4.5,7.3,13.6,16.4c1.5-0.9,3.8-1.4,6.8-1.4V345l-13.6-15v-1.4h1.4l16.4,15c1.8-0.9,3.2-1.4,4.1-1.4l-15-16.4v-1.4h1.4
		l16.4,15l2.7-4.1c-1.3,0-6.3-5-15-15c0.3-1.8,1.2-2.7,2.7-2.7c0,2.5,5,8,15,16.4c0-1.5,0.9-3.3,2.7-5.5
		c-9.1-9.1-14.6-13.6-16.4-13.6c0.9-1.8,1.4-3.2,1.4-4.1l16.4,15l1.4-2.7v-1.4c-10-10.5-15-15.9-15-16.4l2.7-1.4
		c0,1.1,3.6,4.8,10.9,10.9v-1.4c-11.9-11.8-18.8-17.7-20.5-17.7c-1.6,0.9-3.4,1.4-5.5,1.4l1.4-2.7c-1.3,0-6.3-5-15-15h2.7l15,13.6
		h1.4c1.8,0,2.7-0.9,2.7-2.7c-10-10.5-15-15.9-15-16.4l2.7-1.4c0,1.3,5,6.3,15,15c1.8,0,2.7-0.9,2.7-2.7l-13.6-15v-1.4h1.4l15,13.6
		c1.4,0,2.7-1.4,4.1-4.1c-9.1-9.1-14.6-13.6-16.4-13.6c0.3-1.8,1.2-2.7,2.7-2.7l16.4,15l1.4-5.5c-1.3,0-6.3-5-15-15v-2.7l13.6,12.3
		c-16-20.9-28.8-31.4-38.2-31.4c-9.1,10.9-13.6,17.3-13.6,19.1h-1.4c-9.1-14.5-20.5-21.8-34.1-21.8c-2.7,2.8-4.1,12.4-4.1,28.6h-1.4
		c0-1.1-2.3-3.9-6.8-8.2h2.7l2.7,1.4C245,238.1,247.2,230.4,251.8,230.4z M109.9,420c-6.4,5-9.5,8.6-9.5,10.9H99v-4.1
		C103.9,422.3,107.5,420,109.9,420z M100.4,327.2h2.7v1.4h-2.7V327.2z M105.8,384.5h2.7c0.5,0,1.8,0.9,4.1,2.7
		c0-0.9,0.5-1.4,1.4-1.4l1.4,8.2C114,394.1,110.8,390.9,105.8,384.5z M107.2,342.2h2.7v1.4h-2.7V342.2z M164.5,283.6
		c5.5,0.9,8.2,2.3,8.2,4.1v9.5c-14,5.5-29,8.2-45,8.2c-12.7-1.8-19.1-4.1-19.1-6.8C113.6,288.6,132.2,283.6,164.5,283.6z
		 M109.9,418.6h2.7v1.4h-2.7V418.6z M118.1,305.4h2.7c10,8.2,15.5,12.3,16.4,12.3v1.4h-4.1c-8.2-8.2-13.2-12.3-15-12.3V305.4z
		 M123.6,280.8c0,1.4,0.9,3.2,2.7,5.5h-2.7c-1.7-0.9-3.1-1.4-4.1-1.4C119.5,283.6,120.8,282.2,123.6,280.8z M129,275.4l6.8,8.2
		l-5.5,1.4l1.4-2.7c-1.4,0-3.2-1.8-5.5-5.5L129,275.4z M141.3,305.4h4.1c1.1,0,4.8,3.6,10.9,10.9v1.4H144c-5.1-6.4-11-9.5-17.7-9.5
		v-1.4h10.9c0,1.4,3.2,4.5,9.5,9.5h5.5c-4.5-6.4-8.2-9.5-10.9-9.5V305.4z M134.5,268.6l13.6,15h-9.5v-1.4h2.7
		c-4.5-6.4-8.2-9.5-10.9-9.5C130.4,271.3,131.7,269.9,134.5,268.6z M161.8,334h1.4c0.6,0,10.6,10,30,30h6.8c-8.1-10-14-15-17.7-15
		v-1.4h5.5l16.4,15h1.4v-5.5l-9.5-10.9V345l9.5,8.2v-6.8h1.4c0,22.7,5.9,34.1,17.7,34.1l-1.4,2.7c8.4,9.1,15.7,13.6,21.8,13.6
		c-8.4-10-13.9-15-16.4-15v-1.4h10.9v1.4h-4.1c0,1.3,5,6.3,15,15h5.5l-15-16.4h4.1l16.4,15h5.5c-8.4-10-13.9-15-16.4-15v-1.4h9.5
		v1.4h-2.7c8.1,10,14,15,17.7,15v38.2c0,1.8-0.9,2.7-2.7,2.7h-20.5c-1.3,0-6.7-5.5-16.4-16.4h2.7l16.4,15h5.5c-7.6-10-14-15-19.1-15
		v-1.4h8.2c0,1.3,5,6.3,15,15h6.8c-7.6-10-14-15-19.1-15v-1.4c2.7,0,5.9-0.5,9.5-1.4l-1.4,2.7l13.6,12.3v-5.5l-9.5-10.9h2.7
		c4.1,3.6,6.4,5.5,6.8,5.5v-4.1c0-2-0.5-3.9-1.4-5.5c0.9-1.6,1.4-3.4,1.4-5.5c0-4.5-0.9-6.8-2.7-6.8h-5.5v1.4h5.5v1.4h-43.6
		c-10.9-8.9-16.4-15.2-16.4-19.1l10.9,9.5V390c-10.7-15.5-21.1-23.2-31.4-23.2c0-0.9-1.4-1.8-4.1-2.7v1.4l5.5,4.1
		c0-0.9,0.5-1.4,1.4-1.4l-1.4,8.2h-1.4l-12.3-10.9v2.7h-1.4c0-7.3-1.4-10.9-4.1-10.9h-23.2c-1.8,0-2.7-0.9-2.7-2.7v-12.3
		c-2.7,0-4.1-0.9-4.1-2.7l5.5-1.4l-1.4,2.7l15,13.6c1.8-0.9,3.2-1.4,4.1-1.4l-13.6-15v-1.4h1.4c10,10,15.9,15,17.7,15
		c1.8-0.9,3.2-1.4,4.1-1.4l-13.6-15V334z M142.7,402.2h1.4v2.7h-1.4V402.2z M142.7,406.3c1.6,0.9,3.4,1.4,5.5,1.4v1.4h-5.5V406.3z
		 M144,394.1h1.4c1.1,4.8,5.2,8.9,12.3,12.3v1.4h-4.1c-4.1-1.5-7.3-4.2-9.5-8.2V394.1z M148.1,346.3v6.8c0.3,1.8,1.2,2.7,2.7,2.7
		h6.8C157.7,354.5,154.5,351.3,148.1,346.3z M163.1,301.3h2.7c1.2,0,6.7,5.5,16.4,16.4v1.4c-1,0-4.7,1.8-10.9,5.5
		c-9.2-12.7-16-19.1-20.5-19.1V304h5.5c0.9,0,5.9,5,15,15h4.1c1.8,0,2.7-0.9,2.7-2.7c-0.7,0-5.7-4.5-15-13.6V301.3z M152.2,377.7
		h2.7v1.4h-2.7V377.7z M157.7,302.7h2.7v1.4h-2.7V302.7z M161.8,316.3h2.7v1.4h-2.7V316.3z M164.5,332.7h2.7v1.4h-2.7V332.7z
		 M164.5,400.9v4.1h9.5c4.4,0,9.9,3.2,16.4,9.5l-2.7-23.2C172.4,395.7,164.7,398.8,164.5,400.9z M174,297.2c0,1.3,1.4,2.6,4.1,4.1
		c0-0.9,0.5-1.4,1.4-1.4v6.8c-1.3,0-4-2.7-8.2-8.2L174,297.2z M172.7,354.5v1.4c1.6,0,3.9,0.9,6.8,2.7v-1.4c-2.2-1.8-4-2.7-5.5-2.7
		H172.7z M176.8,369.5c0,1.1,4.1,5.2,12.3,12.3c0-0.9,0.5-1.4,1.4-1.4v5.5H189c-9.1-9.1-14.6-13.6-16.4-13.6v-1.4
		C173.7,370.9,175.1,370.4,176.8,369.5z M176.8,244H189c5.5,0,12.7,3.2,21.8,9.5c12.4-1.8,20.6-2.7,24.6-2.7h4.1v1.4
		c-10.9,0.9-22.3,2.3-34.1,4.1c0-7.3-9.5-10.9-28.6-10.9V244z M176.8,293.1h1.4v2.7h-1.4V293.1z M179.5,306.8h1.4v2.7h-1.4V306.8z
		 M180.9,312.2h1.4v2.7h-1.4V312.2z M202.7,301.3h1.4c0,2.3,0.9,4.5,2.7,6.8h-4.1V301.3z M204,291.8h1.4c0,3,2.7,7,8.2,12.3
		l-2.7,1.4l-6.8-8.2V291.8z M204,340.9h1.4c1.8,0.2,2.7,1.1,2.7,2.7l-2.7,1.4l-1.4-2.7V340.9z M204,366.8v1.4h2.7v-1.4H204z
		 M213.6,462.3h6.8v1.4h-6.8V462.3z M217.7,400.9h2.7v1.4h-2.7V400.9z M220.4,331.3h2.7v1.4h-2.7V331.3z M221.8,425.4h1.4
		c0,1.8,2.7,5.5,8.2,10.9c-1.7,0.9-3.1,1.4-4.1,1.4h-5.5v-1.4h5.5c0-2.3-1.8-3.6-5.5-4.1V425.4z M227.2,327.2l6.8,8.2h-2.7
		c-4.2-3.6-6.9-5.5-8.2-5.5v-1.4C224.2,328.6,225.5,328.1,227.2,327.2z M224.5,420h9.5v1.4H230l13.6,15h-4.1c-1.3,0-6.3-5-15-15V420
		z M227.2,364.1h1.4c1.8,0.2,2.7,1.1,2.7,2.7h-4.1V364.1z M228.6,395.4v1.4c0.3,1.8,1.2,2.7,2.7,2.7h5.5v-1.4
		C234.3,398.2,231.6,397.2,228.6,395.4z M235.4,358.6c3.6,4,5.5,6.3,5.5,6.8h-2.7c-1.4,0-3.2-1.8-5.5-5.5L235.4,358.6z M239.5,269.9
		c0,1.3,2.7,4,8.2,8.2v-5.5h1.4v10.9c-1.1,0-5.2-4.1-12.3-12.3L239.5,269.9z M238.1,297.2v1.4c4.5,0,10.9,5,19.1,15l-8.2-19.1
		C243.3,296.3,239.6,297.2,238.1,297.2z M240.9,353.1l9.5,10.9H245c0-1.6-2.3-4.8-6.8-9.5L240.9,353.1z M242.2,263.1h1.4
		c1.4,0,2.7,1.4,4.1,4.1v4.1c-1.4,0-3.2-1.8-5.5-5.5V263.1z M253.1,233.1c18.2,2.3,27.3,10.9,27.3,25.9v1.4h4.1
		c0.7-3.9,6.6-12,17.7-24.6c8.3,2.3,15.6,7.7,21.8,16.4v4.1c-11.5,16.1-24.7,26.6-39.6,31.4v2.7c3,6.4,8,9.5,15,9.5
		c13.6,0,20.5-0.9,20.5-2.7c2,0.6,4.8,2.4,8.2,5.5c-7.6,18.2-17.6,27.3-30,27.3h-9.5c-21.7,0-34.9-20.9-39.6-62.7v-17.7
		C249.1,241.7,250.4,236.3,253.1,233.1z M249.1,284.9h1.4v2.7h-1.4V284.9z M260,463.6c0,1.3,5,6.3,15,15h5.5c0-1.2-5-6.2-15-15H260z
		 M262.7,379.1h2.7c1.4,0,4.5,3.2,9.5,9.5v2.7C273.8,391.3,269.7,387.2,262.7,379.1z M275,379.1h1.4v2.7H275V379.1z M279.1,246.7
		h1.4v2.7h-1.4V246.7z M281.8,256.3h2.7c0,1.8-0.9,2.7-2.7,2.7V256.3z M287.3,287.7h2.7c1.1,0,4.8,3.6,10.9,10.9h-2.7
		C297,298.6,293.4,294.9,287.3,287.7z M290,332.7c0,1.3,5,6.3,15,15h6.8c0-1.2-5-6.2-15-15H290z M299.5,282.2c0,1.8,4.1,6.8,12.3,15
		l-2.7,1.4H305v-1.4h2.7l-12.3-13.6C296.5,283.6,297.8,283.1,299.5,282.2z M302.3,409.1h1.4v4.1h-1.4V409.1z M303.6,329.9h2.7v1.4
		h-2.7V329.9z"/>
	<path d="M557.3,229c7.7,0,15.9,6.4,24.6,19.1c16.7-2,28.5-3.9,35.5-5.5c26.4,8.8,39.6,19.7,39.6,32.7c0,16.4-6.8,32.3-20.5,47.7
		c7.3,6.7,10.9,12.2,10.9,16.4v5.5c0,7.5-19.1,13-57.3,16.4c0,0.9-0.9,1.4-2.7,1.4v1.4h20.5c15.5,0,27.7,10,36.8,30v6.8l-30,30v1.4
		c23.8,12.3,38.3,25.9,43.7,40.9v2.7c-1.8,5.5-5.5,8.2-10.9,8.2h-9.5c-13.8,0-34.2-7.7-61.4-23.2c-22.3,12.7-37.3,19.1-45,19.1
		c-8.4,0-16.6-7.7-24.6-23.2v-1.4c0.2-5.1,8.4-16,24.6-32.7c-18-20.3-27.1-33.5-27.3-39.6h-1.4v50.5c0,23.6-8.2,35.5-24.6,35.5h-2.7
		c-1.4,0-12.7-8.2-34.1-24.6c-6.4-4.4-9.5-9.4-9.5-15c3.6-5.5,7.3-8.2,10.9-8.2V420c-18.3,0-31.5-9.1-39.6-27.3v-9.5
		c0.3-1.8,1.2-2.7,2.7-2.7l-1.4,6.8v4.1c3.2,5.5,7.3,8.2,12.3,8.2l-1.4,2.7c1.1,0,5.2,4.1,12.3,12.3l8.2,1.4l-13.6-15l5.5-1.4
		l-1.4,2.7l15,13.6h4.1v-2.7l-13.6-15h2.7c10,8.4,15,13.9,15,16.4l2.7-1.4v2.7l-17.7,13.6c0,4,11.8,14.9,35.5,32.7v-1.4
		c-1.1,0-4.8-3.6-10.9-10.9h2.7c0.5,0,5.9,5,16.4,15h2.7c1.8,0,2.7-0.9,2.7-2.7c-1.3,0-5.8-4.5-13.6-13.6v-1.4h1.4l16.4,15h1.4
		c1.8,0,2.7-0.9,2.7-2.7c-1.3,0-6.3-5-15-15h2.7l15,13.6l2.7-5.5c-1.3,0-6.3-5-15-15v-5.5h1.4c0,3.8,5,9.7,15,17.7v-5.5
		c-10-10-15-15.9-15-17.7v-5.5h1.4c0,5,4.5,10.9,13.6,17.7l1.4-6.8c-1.3,0-6.3-5-15-15v-2.7l15,13.6v-5.5L485,405v-2.7
		c0.9,0,5.9,5,15,15v-6.8l-15-16.4v-2.7l15,13.6v-6.8c-10-10.5-15-15.9-15-16.4v-2.7l15,13.6v-5.5c-10-10.5-15-15.9-15-16.4v-2.7
		l13.6,12.3v-6.8c0-1.2-4.5-5.8-13.6-13.6v4.1h-1.4v-21.8h1.4c0,2.7,4.5,7.7,13.6,15v-6.8l-15-16.4v-2.7
		c18.1,17.2,29.4,26.3,34.1,27.3v-1.4c-1.1,0-5.2-4.1-12.3-12.3h2.7c1.4,0,7.7,5.5,19.1,16.4c1.6,0.9,3.4,1.4,5.5,1.4h1.4l-13.6-15
		h2.7c0.5,0,5.9,5,16.4,15h5.5l-13.6-15h2.7c10.5,10.9,18.2,16.4,23.2,16.4c1.8,0.2,2.7,1.1,2.7,2.7c-23.5,2.7-41.7,6.8-54.6,12.3
		v1.4c1.4,7.3,4.1,10.9,8.2,10.9l-1.4,2.7c12.5,15.6,20.7,23.8,24.6,24.6v1.4c-18.2,18.2-27.3,30.5-27.3,36.8
		c9.8,13.6,17.5,20.5,23.2,20.5v-1.4c-10.7-9.1-17.1-13.6-19.1-13.6v-1.4h5.5c10,10,15.9,15,17.7,15c1.8-0.9,3.2-1.4,4.1-1.4
		l-15-16.4c1,0,2.4-0.5,4.1-1.4c0,2.5,5,8,15,16.4c1.8-0.9,3.2-1.4,4.1-1.4v-1.4l-13.6-15v-1.4c10,10,15.9,15,17.7,15
		c1.8-0.9,3.2-1.4,4.1-1.4c-8.4-10-13.9-15-16.4-15v-1.4c1,0,2.4-0.5,4.1-1.4c0,1.3,5,6.3,15,15h1.4c1.8,0,2.7-0.9,2.7-2.7
		c-1.3,0-5.8-4.5-13.6-13.6v-2.7c10,10,15.9,15,17.7,15c1.8-0.9,3.2-1.4,4.1-1.4l-15-16.4v-1.4h1.4c10.2,10.5,18.9,16.8,25.9,19.1
		v-1.4c-1.4,0-4.5-3.2-9.5-9.5h1.4c1.7,0,8.5,5.9,20.5,17.7c6.6,3.6,10.7,5.5,12.3,5.5l-12.3-13.6h1.4c1.5,0,8.3,5.9,20.5,17.7
		l6.8,1.4c-7.3-9.1-12.3-13.6-15-13.6v-1.4h2.7c1.4,0,7.7,5.5,19.1,16.4c0.7,0,3.4,0.5,8.2,1.4c-7.2-10-14-15-20.5-15h-1.4V465H631
		c0,2.5,5,8,15,16.4c1.6-0.9,3.4-1.4,5.5-1.4l-16.4-16.4l2.7-1.4c0,1.3,5,6.3,15,15h1.4v-5.5c0-1.2-4.5-5.8-13.6-13.6
		c0,0.9-0.5,1.4-1.4,1.4c0-9.3-10.5-18.9-31.4-28.6v-1.4h2.7v-1.4l-15-16.4l2.7-1.4c0,1.3,5,6.3,15,15c1.8-0.9,3.2-1.4,4.1-1.4
		l-15-17.7l2.7-1.4c8.6,10.9,13.6,16.4,15,16.4c1.8-2.3,2.7-3.6,2.7-4.1l-15-16.4l2.7-1.4c0,1.3,5,6.3,15,15c1.4,0,2.7-1.4,4.1-4.1
		c-9.1-9.1-14.6-13.6-16.4-13.6c0.3-1.8,1.2-2.7,2.7-2.7l16.4,15l2.7-4.1c-1.3,0-6.3-5-15-15c0.3-1.8,1.2-2.7,2.7-2.7
		c0,2.5,5,8,15,16.4l2.7-4.1c0-1.2-5-6.2-15-15c0.9-1.6,1.4-3.4,1.4-5.5h1.4c0,4,4.5,9.4,13.6,16.4c-3.8-10.1-9.2-16.9-16.4-20.5
		c-3.5-6.4-11.3-9.5-23.2-9.5h-20.5c0-1.2-5-7.6-15-19.1h1.4c0.5,0,5.9,5,16.4,15c1.8,0,2.7-0.9,2.7-2.7l-13.6-15v-1.4h1.4l16.4,15
		h6.8c-7.6-10-14-15-19.1-15v-1.4h8.2c0,1.3,5,6.3,15,15h5.5l-13.6-15l2.7-1.4h4.1v1.4h-2.7c0,1.3,4.5,5.8,13.6,13.6h6.8l-13.6-15
		v-1.4h1.4l16.4,15h5.5c-8.4-10-13.9-15-16.4-15v-1.4c2,0,3.9-0.5,5.5-1.4l15,16.4c1.8-0.9,3.2-1.4,4.1-1.4V349l-13.6-15v-1.4h1.4
		l16.4,15c1.8,0,2.7-0.9,2.7-2.7l-15-16.4v-1.4h1.4l15,13.6v-1.4c0-4.2-4.5-9.2-13.6-15c0,0.9-0.5,1.4-1.4,1.4c0-2-0.5-3.9-1.4-5.5
		h2.7l-13.6-15c0.3-1.8,1.2-2.7,2.7-2.7c0,2.5,5,8,15,16.4l2.7-4.1c-1.3,0-6.3-5-15-15v-1.4h1.4l16.4,15c0-1.5,0.9-3.3,2.7-5.5
		c-9.1-9.1-14.6-13.6-16.4-13.6c0.9-1.8,1.4-3.2,1.4-4.1l16.4,15h1.4v-5.5c-8.2-8.2-13.2-12.3-15-12.3c0.9-1.8,1.4-3.2,1.4-4.1
		l16.4,15l1.4-6.8c-1.3,0-6.3-5-15-15l2.7-1.4c0,1.3,4.5,5.8,13.6,13.6l1.4-6.8c-8.9-6.5-13.9-11-15-13.6v-13.6
		c0-2.4-5.9-5.6-17.7-9.5l-40.9,4.1c-8.6-11.8-17.3-17.7-25.9-17.7h-2.7v-1.4L557.3,229z M553.2,233.1h6.8c6.4,0,9.5,12.3,9.5,36.8
		v45l-1.4,9.5c13.5-1.8,29.9-2.7,49.1-2.7h10.9v4.1c0,7-18.2,12-54.6,15c-7.3,4.2-10.9,9.2-10.9,15c-3,1.8-5.7,2.7-8.2,2.7
		c-2.7-5.3-4.1-9.9-4.1-13.6c-12.4,0.9-20.1,1.4-23.2,1.4c-19.1-0.9-30-4.5-32.7-10.9V334h8.2c-3-20-5.7-30-8.2-30
		c-6.9,3.6-11.5,5.5-13.6,5.5c1.8,39.4,2.7,73.1,2.7,100.9c0,23.6-4.5,35.5-13.6,35.5c-3.3,1.8-6.9,2.7-10.9,2.7
		c-8.3-10.1-16-16-23.2-17.7v-2.7c12.7-4.7,19.1-10.6,19.1-17.7V390c-19.2,6.4-31,9.5-35.5,9.5c-9.1-1.2-13.6-5.3-13.6-12.3v-2.7
		c3.4-6.9,18-14.7,43.6-23.2c0-0.9,1.8-2.3,5.5-4.1c-0.9-10.7-1.4-18.4-1.4-23.2v-16.4c-4.8,0-12.5,0.5-23.2,1.4
		c-4.2,0-10.6-1.4-19.1-4.1v-4.1c0-4.8,14.1-10.2,42.3-16.4v-13.6c0-12.7,1.4-19.1,4.1-19.1c11.9,0,18.8,9.5,20.5,28.6H496
		c-0.9-9.1-1.4-15.9-1.4-20.5l1.4-9.5h6.8l2.7,1.4c4.2-13.6,9.7-20.5,16.4-20.5c6.5,3.1,12.4,8.1,17.7,15v2.7
		c-5.6,7.3-14.2,10.9-25.9,10.9l4.1,20.5l2.7-1.4h19.1c1.4,0,2.7,1.4,4.1,4.1v1.4c0,3.5-8.6,7.2-25.9,10.9v1.4
		c0,4-0.9,12.2-2.7,24.6l34.1-4.1c-0.9-15-1.4-26.4-1.4-34.1v-39.6C547.8,239.9,549.6,233.1,553.2,233.1z M446.8,360
		c0,1-10.9,5.6-32.7,13.6c0,1.1-2.7,3.4-8.2,6.8v-1.4C408.8,373.4,422.4,367,446.8,360z M456.4,257.7c1.6,0.9,3.4,1.4,5.5,1.4v1.4
		c-4.5,0-6.8,0.9-6.8,2.7c-1.8,4.1-2.7,10-2.7,17.7v12.3c-28.2,6.4-42.3,12.3-42.3,17.7v2.7c10,14.6,19.5,21.8,28.6,21.8l-13.6-15
		h1.4l16.4,15h6.8l-13.6-15h1.4c10,7.2,15,14,15,20.5l1.4,16.4c-1.4,0-3.2,0.9-5.5,2.7h-1.4l4.1-5.5v-15h-1.4
		c-21.8,0-35.9-8.6-42.3-25.9v-1.4c0-8.4,14.1-15.2,42.3-20.5v-1.4C450,268.6,452.3,257.7,456.4,257.7z M420.9,319h4.1v1.4h-4.1V319
		z M435.9,396.8h2.7v1.4h-2.7V396.8z M440,319h9.5c0,0.9,0.5,1.4,1.4,1.4c0-0.9,0.5-1.4,1.4-1.4v13.6h-1.4c0-8.2-3.2-12.3-9.5-12.3
		H440V319z M448.2,392.7h5.5v17.7h-1.4c0-1.8-3.6-6.4-10.9-13.6v-1.4h2.7c0.5,0,3.2,2.3,8.2,6.8v-5.5c0-1.8-1.4-2.7-4.1-2.7V392.7z
		 M517.8,239.9c-9.1,9.5-13.6,15.9-13.6,19.1h-6.8c-2.7,0.6-4.1,4.2-4.1,10.9v2.7l1.4,16.4h-15v-1.4h2.7c-2.7-3.5-4.1-6.2-4.1-8.2
		l9.5,8.2h1.4c-1.6-4.9-7-11.3-16.4-19.1c0-2.4-3.6-4.7-10.9-6.8v-1.4h2.7c13.4,6,22.1,13.8,25.9,23.2h1.4l-1.4-9.5v-4.1
		c0-9.1,3.6-13.6,10.9-13.6c0,0.9,0.5,1.4,1.4,1.4C507,245.8,512,239.9,517.8,239.9z M464.6,448.6h2.7v1.4h-2.7V448.6z M483.7,309.5
		h1.4c10.9,8.5,16.4,15.8,16.4,21.8l-8.2,2.7c0-1.4-3.2-4.5-9.5-9.5c0,0.9-0.5,1.4-1.4,1.4v-13.6h1.4c0,6.4,4.5,12.7,13.6,19.1
		c0-2,0.5-3.9,1.4-5.5c-1.3,0-6.3-5-15-15V309.5z M485,349v5.5c0,1.3,4.5,5.8,13.6,13.6v-5.5C498.7,361.4,494.1,356.9,485,349z
		 M496,306.8l1.4,6.8c-1.3,0-3.5-2.3-6.8-6.8H496z M491.9,334h1.4v2.7h-1.4V334z M497.3,316.3h1.4v2.7h-1.4V316.3z M501.4,353.1v1.4
		c0.9,9.3,1.4,16.6,1.4,21.8v1.4c18.5-6.4,31.7-9.5,39.6-9.5v-1.4C527.3,366.8,513.7,362.2,501.4,353.1z M592.8,366.8h9.5
		c12.6,0,20.3,3.6,23.2,10.9v4.1c-23.2,23.6-36.4,35.5-39.6,35.5v1.4c0,0.8,13.6,9,40.9,24.6c7.3,5.7,10.9,11.1,10.9,16.4
		c-0.9,2.7-3.6,4.1-8.2,4.1h-5.5c-16.1,0-37.1-8.2-62.7-24.6c-24,13.6-39.4,20.5-46.4,20.5h-2.7c-0.9-3.2-1.4-5-1.4-5.5
		c0.2-3.5,9.8-14.9,28.6-34.1c-14.4-12.4-21.7-19.7-21.8-21.8c2.3-1.8,4.5-2.7,6.8-2.7v-2.7c-11.8-0.6-17.7-5.1-17.7-13.6
		C533.1,370.9,561.8,366.8,592.8,366.8z M513.7,346.3h4.1v1.4h-4.1V346.3z M550.5,231.7v1.4c-2.7,4.3-4.1,11.1-4.1,20.5v39.6
		l-5.5-5.5h-21.8v-1.4h8.2L515,272.7v-1.4h1.4l16.4,15h6.8c-8.1-10-14.9-15-20.5-15v-1.4h8.2c0,1.3,5,6.3,15,15h2.7v-4.1
		c-6.4-8.2-10.9-12.3-13.6-12.3v-1.4c1,0,2.4-0.5,4.1-1.4c0,1.4,3.2,4.5,9.5,9.5v-6.8l-5.5-6.8h1.4l4.1,2.7v-6.8l-13.6-12.3
		c-4.1-3.6-8.6-5.5-13.6-5.5v-1.4h6.8c3.8,1.9,10.1,6,19.1,12.3C544.4,238.1,546.6,231.7,550.5,231.7z M515,392.7h2.7v1.4H515V392.7
		z M516.4,276.8h1.4v2.7h-1.4V276.8z M516.4,327.2c1.8,0.9,3.2,1.4,4.1,1.4v1.4h-4.1V327.2z M517.8,283.6h1.4v2.7h-1.4V283.6z
		 M517.8,316.3h1.4c1.2,7.3,5.3,10.9,12.3,10.9v1.4h-8.2c-3.6-4.1-5.5-6.4-5.5-6.8V316.3z M532.8,302.7h4.1l10.9,12.3v10.9
		c-8.1,0.9-13.1,1.4-15,1.4l-13.6-15v-2.7c0.5,0,5.9,5,16.4,15l4.1-5.5c-9.8-7.7-14.8-12.3-15-13.6l5.5-1.4l-1.4,2.7l13.6,12.3h4.1
		v-2.7c-6.4-8.2-10.9-12.3-13.6-12.3V302.7z M520.5,305.4h2.7v1.4h-2.7V305.4z M520.5,459.5h2.7v1.4h-2.7V459.5z M528.7,391.3v2.7
		c4.1,0,13.2,4.5,27.3,13.6c13.9-6.8,25.7-15.5,35.5-25.9v-1.4C552,387.7,531.1,391.3,528.7,391.3z M534.1,391.3h4.1v1.4h-4.1V391.3
		z M539.6,346.3h8.2c0,1.8,0.9,2.7,2.7,2.7v5.5c-4.5-4.5-8.2-6.8-10.9-6.8V346.3z M541,298.6h2.7c1.8,0.2,2.7,1.1,2.7,2.7v2.7
		C545.1,304,543.2,302.2,541,298.6z M543.7,390h2.7l-1.4,2.7c1.1,0,5.2,4.1,12.3,12.3v1.4c-3.8-1-9.2-6-16.4-15L543.7,390z
		 M550.5,388.6h2.7c1.1,0,5.2,4.1,12.3,12.3l-2.7,1.4c-1.1,0-5.2-4.1-12.3-12.3V388.6z M556,360h2.7c3.3,3.6,7.4,5.5,12.3,5.5v1.4
		h-9.5L556,360z M558.7,387.2h4.1c1.4,0,4.5,3.2,9.5,9.5h-2.7c-5.5-5.5-9.1-8.2-10.9-8.2V387.2z M564.2,354.5
		c1.1,0,4.8,3.6,10.9,10.9h-2.7c-1.3,0-4-2.7-8.2-8.2V354.5z M565.5,349h1.4v4.1h-1.4V349z M565.5,385.9h8.2l4.1,5.5
		c0,1.8-0.9,2.7-2.7,2.7c0-4.5-3.2-6.8-9.5-6.8V385.9z M568.2,242.6c1.2,0,4,2.7,8.2,8.2v2.7c-1.3,0-4-2.7-8.2-8.2V242.6z
		 M569.6,250.8h1.4v5.5h-1.4V250.8z M571,256.3c9,9,18.1,15.8,27.3,20.5v-1.4c-1.1,0-5.2-4.1-12.3-12.3h2.7
		c10.7,10.9,17.5,16.4,20.5,16.4v2.7H586v-6.8c-10-10.5-15-15.9-15-16.4V256.3z M571,268.6c1.2,0,5.8,4.5,13.6,13.6l-2.7,1.4h-1.4
		c0-2.8-2.7-6-8.2-9.5v5.5c0,2.7,1.8,4.1,5.5,4.1c-0.9,1.7-1.4,3.1-1.4,4.1l-4.1-2.7v8.2c1.8,0,6.4,3.6,13.6,10.9
		c1.8,0,5.5,3.6,10.9,10.9l6.8,1.4c-10-10.5-15-15.9-15-16.4h5.5c0,1.8,4.5,7.3,13.6,16.4c1.6-0.9,3.4-1.4,5.5-1.4l-13.6-15v-1.4
		h6.8v1.4h-2.7c6.7,9,14,14.9,21.8,17.7c1.8,0.2,2.7,1.1,2.7,2.7h-36.8V319h5.5c0-1.2-2.3-3.1-6.8-5.5v5.5l1.4,2.7h-9.5v-1.4h2.7
		c0-1.1-4.1-5.2-12.3-12.3v6.8l5.5,6.8h-2.7c-1.3,0-2.6-1.4-4.1-4.1V268.6z M571,321.8h2.7v1.4H571V321.8z M572.3,297.2v5.5
		c0,1.3,4.5,5.8,13.6,13.6v-5.5C586,309.6,581.4,305.1,572.3,297.2z M573.7,384.5h2.7v1.4h-2.7V384.5z M576.4,287.7h1.4v2.7h-1.4
		V287.7z M614.6,246.7h1.4c13.6,2.7,20.5,5.9,20.5,9.5v5.5c0,15.2-6.8,29.3-20.5,42.3c-1.3,0-3.1-2.3-5.5-6.8
		c-6.9,0-15.1,0.9-24.6,2.7c-4.5-5.5-6.8-10.5-6.8-15c4.9-0.9,9-1.4,12.3-1.4h19.1c0.9-9.1,1.4-15.9,1.4-20.5v-1.4
		c-11.3,0.9-17.2,1.4-17.7,1.4c-7.7,0-13.2-2.7-16.4-8.2v-2.7c11.5-2.7,23.3-4.1,35.5-4.1c0,0.9,0.5,1.4,1.4,1.4V246.7z
		 M580.5,383.1h1.4c1.8,0.2,2.7,1.1,2.7,2.7c0,1.8-0.9,2.7-2.7,2.7C581,385.4,580.5,383.6,580.5,383.1z M588.7,275.4v5.5h8.2v-1.4
		C594.8,279.5,592.1,278.1,588.7,275.4z M591.4,415.9l6.8,8.2h-1.4c-3.8-1.2-6.5-3.5-8.2-6.8L591.4,415.9z M605.1,263.1h2.7v1.4
		h-4.1c0,1.4,1.8,3.2,5.5,5.5v-4.1h1.4v9.5c-1.1,0-4.8-3.6-10.9-10.9L605.1,263.1z M605.1,462.3h2.7v1.4h-2.7V462.3z M616,317.7v1.4
		h4.1v-1.4H616z M636.5,271.3h1.4v2.7h-1.4V271.3z M639.2,259v6.8c0,1.3,4.5,5.8,13.6,13.6v-6.8C652.8,271.4,648.3,266.9,639.2,259z
		"/>
	<path d="M776.8,239.1c13.1,0,25.1,8.4,36.1,25.2c2.7,5.6,4.1,10.6,4.1,15v0.7c0,10.8-5,25.8-15,45c-0.8,0.5-1.7,0.7-2.7,0.7
		c-14.6-3.5-21.8-14.4-21.8-32.7c-0.5-0.6-1.1-5.6-2-15h-0.7c-11.9,16.1-20.1,37.5-24.6,64.1c-2.3,15.1-3.4,33.1-3.4,53.9
		c0,8.4,0.9,19.1,2.7,32.1h0.7c10-7.2,18.9-16.5,26.6-28c8.6-14.8,13-25,13-30.7c0.8-7.3,2.4-10.9,4.8-10.9c6.4,0,16.4,8.6,30,25.9
		c5,7.8,7.5,14.9,7.5,21.1c0,16.9-17.1,35.1-51.2,54.6c-19.6,9.1-34.3,13.6-44.3,13.6c-14.7,0-27.6-10.2-38.9-30.7
		c-3.6-12.3-5.5-28.9-5.5-49.8v-13.6c0-46.7,9.5-84,28.6-111.9C736.1,248.6,754.7,239.1,776.8,239.1z M770.6,241.8v0.7h2.7v0.7h-4.1
		c-1.6-0.5-2.5-0.7-2.7-0.7h-0.7v0.7h2v0.7h-2l-2.7-0.7h-0.7v0.7h2v0.7h-2c-0.9-0.5-1.6-0.7-2-0.7h-0.7v0.7h2v0.7h-4.1v-0.7
		c-3.3,1.4-5.3,2-6.1,2v1.4h1.4v0.7c-1,0-1.9,0.2-2.7,0.7l-0.7-1.4c-3.5,1.8-5.6,2.7-6.1,2.7l1.4,2c-0.5,0-1.1,0.2-2,0.7L742,252
		c-1.5,0.5-3.3,1.8-5.5,4.1c0.9,0.1,1.4,0.6,1.4,1.4c-0.5,0-1.1,0.2-2,0.7c0-0.9-0.5-1.4-1.4-1.4l-3.4,4.1l0.7,1.4
		c-0.9,0.1-1.4,0.6-1.4,1.4l-1.4-0.7c-0.8,0-2.2,1.6-4.1,4.8h1.4c-0.9,1.1-1.4,2-1.4,2.7h-0.7v-1.4c-0.8,0-2.2,1.6-4.1,4.8v0.7h1.4
		c-0.9,1.1-1.4,2-1.4,2.7h-0.7v-1.4c-2.3,1.8-3.4,3.9-3.4,6.1h0.7c-0.5,0.9-0.7,1.6-0.7,2l-1.4-0.7l-2.7,5.5c0.5,0.9,0.7,1.6,0.7,2
		l-1.4,0.7c0-0.5-0.2-0.7-0.7-0.7c0,0.5-0.7,2.5-2,6.1h0.7c-0.2,1.8-0.9,2.7-2,2.7l0.7,1.4c-0.9,0-1.8,1.4-2.7,4.1l0.7,1.4
		c-1.8,2.5-2.7,5.9-2.7,10.2v0.7c-0.9,0-1.8,2-2.7,6.1l0.7,1.4v0.7c-1,0-2.8,10.9-5.5,32.7v6.1h-0.7c0,0.5,0.2,0.7,0.7,0.7l-0.7,2.7
		c0,4.3-0.2,11.4-0.7,21.1c0,32.9,3.9,53.8,11.6,62.7c7.6,9.4,14.2,14.9,19.8,16.4L712,453.9h0.7c1.4,0,7.5,5.5,18.4,16.4
		c1.9,0,4.4,0.2,7.5,0.7l0.7-1.4c-0.6,0-5.6-5-15-15h2l16.4,15.7c4.5-0.3,6.8-1,6.8-2c-0.6,0-5.8-5.2-15.7-15.7h2
		c0.2,0,5.7,5.2,16.4,15.7c4.1-0.9,6.1-1.8,6.1-2.7c-0.6,0-5.8-5.2-15.7-15.7c0.2,0,1.1-0.2,2.7-0.7l15.7,16.4c2.6-1.4,4.4-2,5.5-2
		v-0.7l-15-15.7v-0.7h1.4c0.2,0,5.7,5.2,16.4,15.7c2.3-1.4,4.1-2,5.5-2v-0.7L759,443h2c0.6,0,5.8,5.2,15.7,15.7
		c3.3-1.8,5.3-2.7,6.1-2.7v-0.7l-15.7-15.7v-0.7h1.4c3,3,8.6,8.2,17.1,15.7c3.2-2.3,4.8-3.6,4.8-4.1c-10.5-9.5-15.7-14.5-15.7-15
		v-0.7h1.4c1.8,0.9,2.7,2,2.7,3.4l1.4-0.7c0,0.6,4.1,4.7,12.3,12.3c3.4-1.7,5.2-3.1,5.5-4.1c-0.6,0-5.8-5.2-15.7-15.7
		c0.1-0.9,0.6-1.4,1.4-1.4c0,0.2,5.2,5.7,15.7,16.4c2.6-1.8,4.2-2.7,4.8-2.7v-0.7l-15.7-16.4c0.1-0.9,0.6-1.4,1.4-1.4
		c0,0.7,5.5,6.1,16.4,16.4l4.1-4.1l-15.7-16.4v-0.7h1.4l16.4,15.7l4.1-4.8c-0.7,0-6.1-5.5-16.4-16.4l1.4-0.7
		c0.2,0,5.7,5.2,16.4,15.7c0.8,0,2.2-1.6,4.1-4.8c-0.7,0-6.1-5.5-16.4-16.4l1.4-0.7l16.4,15.7c1.8-2.7,2.7-4.8,2.7-6.1
		c-0.6,0-5.8-5.2-15.7-15.7V400c0.1-0.9,0.6-1.4,1.4-1.4c0,0.6,5.2,5.8,15.7,15.7c0.9-1.7,1.4-3.5,1.4-5.5v-0.7l-15.7-16.4v-2
		l16.4,15.7v-0.7c0-6.9-3.4-12.8-10.2-17.7c0-0.6-3.2-3.8-9.5-9.5c0-0.5-1.4-2.5-4.1-6.1v-0.7l18.4,17.7v-0.7
		c-11.1-14.4-20-23.1-26.6-25.9v0.7c0.6,0,1.7,1.1,3.4,3.4H800c-2.4-2.3-4.4-3.4-6.1-3.4c0,12.3-8.6,30.5-25.9,54.6
		c-3,2.3-5.9,5-8.9,8.2c0-0.5-0.2-0.7-0.7-0.7l-1.4,2c0.5,0,0.7,0.2,0.7,0.7l-2.7,1.4c0-0.5-0.2-0.7-0.7-0.7c0,0.9-1.4,1.8-4.1,2.7
		v0.7h1.4v0.7c-0.8,0-1.9,0.5-3.4,1.4c0-0.8-5.9-7.2-17.7-19.1v-2c0.2,0,5.7,5.2,16.4,15.7v-0.7c0-6.9-2.5-11.9-7.5-15L729,401.4v-2
		l15.7,15v-4.8c0-3.8-3-7.8-8.9-12.3c-5.5-5.2-8.2-8.9-8.2-10.9c0.2,0,5.7,5.2,16.4,15.7v-8.2l-16.4-17.1v-2.7l16.4,15.7v-7.5
		l-16.4-17.1v-2l16.4,15.7l0.7-3.4v-4.1l-16.4-17.1v-2l16.4,15.7c0-0.8,0.2-3.5,0.7-8.2c-0.7,0-6.1-5.5-16.4-16.4v-2l16.4,15.7
		l0.7-3.4v-4.1l-16.4-17.1c0.1-0.9,0.6-1.4,1.4-1.4c0,0.6,5.2,5.8,15.7,15.7l0.7-6.8v-0.7L731.8,323v-2.7c0.2,0,5.7,5.2,16.4,15.7
		c0.6-0.7,1-3,1.4-6.8c-0.7,0-6.1-5.5-16.4-16.4c0.1-0.9,0.6-1.4,1.4-1.4c0,0.6,5.2,5.8,15.7,15.7c0.9-3.2,1.4-5.7,1.4-7.5
		c-0.6,0-5.8-5.2-15.7-15.7v-2l17.1,16.4c0-0.6,0.5-3.1,1.4-7.5c-0.6,0-5.8-5.2-15.7-15.7v-2l17.1,16.4l2-6.8l-16.4-15.7
		c0.5-0.9,0.7-1.6,0.7-2c0.2,0,5.7,5.2,16.4,15.7h0.7c1.4-3.3,2-5.3,2-6.1c-0.6,0-5.8-5.2-15.7-15.7v-0.7c0.1-0.9,0.6-1.4,1.4-1.4
		c0,0.6,5.2,5.8,15.7,15.7h0.7c1.4-2.8,2-4.7,2-5.5c-0.6,0-5.8-5.2-15.7-15.7c0.1-0.9,0.6-1.4,1.4-1.4c0,0.6,5.2,5.8,15.7,15.7h0.7
		c0-0.6,0.9-2.4,2.7-5.5c-0.6,0-5.8-5.2-15.7-15.7c0.1-0.9,0.6-1.4,1.4-1.4c0,0.6,5.2,5.8,15.7,15.7l4.1-4.8
		c-0.7,0-6.1-5.5-16.4-16.4l1.4-0.7c10.9,10.2,16.4,15.7,16.4,16.4c1.8,11.6,3.4,23,4.8,34.1c6.3,10.5,12.4,15.7,18.4,15.7l0.7-1.4
		c-0.7,0-6.1-5.5-16.4-16.4c0.1-0.9,0.6-1.4,1.4-1.4c0,0.6,5.2,5.8,15.7,15.7h0.7c0-0.5,0.7-2.5,2-6.1c-0.7,0-6.1-5.5-16.4-16.4
		c0.1-0.9,0.6-1.4,1.4-1.4c0,0.7,5.5,6.1,16.4,16.4l2-6.8c-0.7,0-6.1-5.5-16.4-16.4v-1.4h0.7l17.1,16.4l2-6.8l-17.1-16.4
		c0.5-0.9,0.7-1.6,0.7-2l17.1,16.4h0.7c0-1.1,0.5-3.4,1.4-6.8c-8.9-8.2-14.6-14.1-17.1-17.7c0.1-0.9,0.6-1.4,1.4-1.4
		c0,0.7,5.5,6.1,16.4,16.4v-7.5c-11.4-11.3-17.1-17.6-17.1-19.1v-0.7c0.2,0,5.7,5.2,16.4,15.7c-3-10.2-8.6-18.2-17.1-23.9
		c0-0.3-2.3-1.9-6.8-4.8l-1.4,0.7h-0.7l0.7-1.4l-1.4,0.7h-0.7l0.7-1.4l-1.4,0.7c-4.9-1.2-7.4-2.2-7.5-2.7c-0.5,0-0.7,0.2-0.7,0.7
		l-4.8-0.7H770.6z M776.1,244.5h2.7c8,0,13.6,5.2,17.1,15.7v2.7c0,7-4.1,20.5-12.3,40.2h-1.4v-0.7c-2.4-25.9-4.9-38.9-7.5-38.9
		c-4.7-5.9-9.4-8.9-14.3-8.9h-0.7c-22.7,22.4-34.1,64.2-34.1,125.5c1.9,38.6,7.4,58,16.4,58c17.6-6.2,33.3-23.8,47.1-52.5
		c4.1-9.4,6.1-16.3,6.1-20.5h0.7c10,7.3,15,15.2,15,23.9v2.7c0,11.6-14.6,26.8-43.7,45.7c-20.6,10.5-37.2,15.7-49.8,15.7
		c-9.3,0-15.5-7-18.4-21.1c-1.8-13.6-2.7-28.2-2.7-43.6v-2c0-56,12.3-97.2,36.8-123.4C747.9,250.7,762.2,244.5,776.1,244.5z
		 M733.8,258.8h1.4v0.7h-1.4V258.8z M734.5,428c4.9,5,8.1,7.5,9.5,7.5v0.7c-0.5,0-1.1,0.2-2,0.7C739.2,436.9,736.7,433.9,734.5,428z
		 M741.3,253.4h1.4v0.7h-1.4V253.4z M744,434.8h1.4v0.7H744V434.8z M744.7,251.3h1.4v0.7h-1.4V251.3z M745.4,434.1h1.4v0.7h-1.4
		V434.1z M746.1,250.7h1.4v0.7h-1.4V250.7z M746.8,433.4h1.4v0.7h-1.4V433.4z M752.9,247.3h1.4v0.7h-1.4V247.3z M754.3,246.6h1.4
		v0.7h-1.4V246.6z M755.6,245.9h2v0.7h-2V245.9z M774.7,266.3l0.7,1.4v1.4h-2v-1.4C773.5,266.8,773.9,266.3,774.7,266.3z"/>
	<path d="M887.6,250h2c6.8,0,15.5,9.1,25.9,27.3v0.7h3.4c2.6,0,4.2-0.2,4.8-0.7c30.7,0,51.4,6.6,62.1,19.8
		c10.5,9.2,15.7,20.3,15.7,33.4v1.4c0,22.2-13.2,51.7-39.6,88.7c-24.8,27.7-48.9,41.6-72.3,41.6c-14.4,0-26-8-34.8-23.9
		c-2.3-4.4-3.4-10.1-3.4-17.1c0-16.9,3-48.8,8.9-95.5h-2c-7.4,0-15.3-5.9-23.9-17.7c-0.9-1.7-1.4-3.5-1.4-5.5v-1.4
		c0-5.9,9.5-10.5,28.6-13.6c4.5-0.9,6.8-5.2,6.8-13C871,267.4,877.4,259.2,887.6,250z M887.6,254.1c0.5,0,0.7,0.2,0.7,0.7
		c-0.8,0-1.9,0.7-3.4,2c0-0.5-0.2-0.7-0.7-0.7l-1.4,2c0.5,0,0.7,0.2,0.7,0.7c-3.6,2.6-5.5,4.2-5.5,4.8c0.5,0,0.7,0.2,0.7,0.7
		c-0.9,0.5-1.6,0.7-2,0.7l0.7,1.4c-1.4,1.8-2.5,2.7-3.4,2.7l0.7,1.4h-1.4l0.7,1.4h-1.4c0,0.5,0.2,0.7,0.7,0.7l-5.5,15
		c-0.9,0.5-1.6,0.7-2,0.7v0.7h1.4v0.7c-2,0-6.6,1.1-13.6,3.4l-1.4-0.7h-0.7v0.7h1.4v0.7h-2l-1.4-0.7v0.7c0.5,0,0.7,0.2,0.7,0.7h-2
		l-1.4-0.7v0.7c0.5,0,0.7,0.2,0.7,0.7l-3.4,0.7l-1.4-0.7c-2.7,1-4.1,1.9-4.1,2.7c0.5,0,0.7,0.2,0.7,0.7c-1.9,0-3.3,1.6-4.1,4.8
		c2.6,6,7.4,11.5,14.3,16.4c2.4,1.7,6.2,3.1,11.6,4.1V323c-0.6,0-5.6-5-15-15h2.7c0.6,0,5.6,5,15,15c-6.4,44.8-9.5,79.1-9.5,103v0.7
		c0,10.1,6.8,19.7,20.5,28.6l4.1,2v-0.7c-0.6,0-4.9-4.3-13-13h2.7c10,10,15.5,15,16.4,15c2.4,0.5,4.7,0.7,6.8,0.7h1.4l-15.7-15.7
		l1.4-0.7l17.1,15.7c4.5-0.2,6.8-0.9,6.8-2c-0.6,0-5.6-5-15-15V441h1.4c0.2,0,5.7,5.2,16.4,15.7c4.1-0.8,6.1-1.7,6.1-2.7
		c-0.6,0-5.6-5-15-15v-0.7h1.4l16.4,15.7c3.6-1.6,5.5-2.7,5.5-3.4c-0.6,0-5.8-5.2-15.7-15.7c0.5,0,1.1-0.2,2-0.7
		c9.7,10.5,15.1,15.7,16.4,15.7c2.3-1.4,3.9-2,4.8-2v-0.7l-15.7-16.4l1.4-0.7h0.7c0.6,0,5.8,5.2,15.7,15.7c3.2-1.6,4.8-2.7,4.8-3.4
		l-15.7-16.4l1.4-0.7L936,441c2-0.8,3.6-2.2,4.8-4.1c-0.6,0-5.8-5.2-15.7-15.7c0.1-0.9,0.6-1.4,1.4-1.4c0,0.7,5.5,6.1,16.4,16.4
		c0-0.3,1.4-1.7,4.1-4.1L930.6,415l1.4-0.7l17.1,16.4c0-0.2,1.4-1.8,4.1-4.8c-0.7,0-6.1-5.5-16.4-16.4c0.1-0.9,0.6-1.4,1.4-1.4
		c0,0.7,5.5,6.1,16.4,16.4l4.1-4.8c-0.7,0-6.1-5.5-16.4-16.4c0.1-0.9,0.6-1.4,1.4-1.4c0.2,0,5.7,5.2,16.4,15.7
		c0.7,0,1.8-1.4,3.4-4.1l-16.4-17.1l1.4-0.7l16.4,15.7c2.3-2,3.4-3.9,3.4-5.5c-0.6,0-5.8-5.2-15.7-15.7v-1.4h0.7l16.4,15.7h0.7
		c0-0.6,0.9-2.4,2.7-5.5c-0.7,0-6.1-5.5-16.4-16.4l1.4-0.7c0.2,0,5.7,5.2,16.4,15.7c1.8-3.5,2.7-5.6,2.7-6.1
		c-0.7,0-6.1-5.5-16.4-16.4l1.4-0.7c0.2,0,5.7,5.2,16.4,15.7c1.8-3.3,2.7-5.3,2.7-6.1l-16.4-15.7c0.5-0.9,0.7-1.6,0.7-2h0.7
		c0.2,0,5.7,5.2,16.4,15.7c1.8-2.6,2.7-4.4,2.7-5.5c-0.7,0-6.1-5.5-16.4-16.4c0.1-0.9,0.6-1.4,1.4-1.4c0,0.7,5.5,6.1,16.4,16.4
		l2-6.8L972.2,353c0.5-0.9,0.7-1.6,0.7-2l17.1,16.4c1.4-3,2-5,2-6.1l-16.4-17.1c0.1-0.9,0.6-1.4,1.4-1.4c0,0.7,5.5,6.1,16.4,16.4
		c0-0.2,0.7-2.5,2-6.8l-17.1-16.4c0.5-0.9,0.7-1.6,0.7-2l17.1,16.4c0.9-3.2,1.4-5.7,1.4-7.5c-0.7,0-6.1-5.5-16.4-16.4v-2l17.1,16.4
		l0.7-4.8v-2.7l-16.4-17.1v-2c0.2,0,5.7,5.2,16.4,15.7v-1.4c0-6.7-3.2-12.2-9.5-16.4c-5.9-5.9-8.9-9.8-8.9-11.6l15.7,15
		c-4.2-9.8-13.1-19.1-26.6-28c-0.9,0-1.4-0.2-1.4-0.7l-1.4,0.7c-1.8-0.9-3.4-1.4-4.8-1.4l0.7-1.4l-1.4,0.7h-1.4l0.7-1.4l-1.4,0.7h-2
		v-0.7h1.4v-0.7h-0.7c-0.8,0.5-1.7,0.7-2.7,0.7h-0.7l0.7-1.4c-0.5,0-1.1,0.2-2,0.7c-3.2-0.5-5.9-0.7-8.2-0.7V282h2v-0.7h-0.7
		c-2.5,0.5-4.5,0.7-6.1,0.7h-3.4c-0.9,0-1.4-0.5-1.4-1.4l-1.4,0.7h-22.5c0-0.9-4.8-6.1-14.3-15.7v-2l15.7,15v-0.7
		c-8.8-15.5-16.7-23.9-23.9-25.2C888.1,252.8,887.6,253.3,887.6,254.1z M889,256.1c5,4.3,7.5,8.4,7.5,12.3l-1.4,17.1
		c8.2-1.4,17.1-2.3,26.6-2.7c28.4,0,45.9,4.3,52.5,13c4.5,4.1,6.8,9.5,6.8,16.4c0,16.8-9.1,41.2-27.3,73
		c-27.1,38.2-54.8,57.3-83.2,57.3c-10,0-15-5.7-15-17.1c0-22.3,4.3-63,13-122.1c-9.9,1.8-17.2,3-21.8,3.4c-6.4-0.9-9.5-2-9.5-3.4
		v-0.7c0-2.6,11.1-6.9,33.4-13C870.6,277.8,876.7,266.7,889,256.1z M841.9,295.7h1.4v0.7h-1.4V295.7z M858.3,306.6
		c0.6,0,2.8,2.3,6.8,6.8v2c-0.7,0-3.4-2.7-8.2-8.2L858.3,306.6z M867.1,288.2h2v0.7h-2V288.2z M893.1,298.4
		c-6.4,44.8-9.5,77.8-9.5,98.9c0.2,18.3,2.7,28.5,7.5,30.7h0.7c11.1-8.3,22.1-20.8,32.7-37.5c15.9-29.6,23.9-52.1,23.9-67.5v-2
		c0-11.5-10-18.8-30-21.8C906.8,298.6,898.4,298.4,893.1,298.4z M897.2,300.5h2.7l16.4,15.7h7.5l-15-15.7h2
		c10.5,10.5,16.1,15.7,17.1,15.7c0.8,0,3.5,0.2,8.2,0.7l-15-15.7h2c10.8,10.9,16.9,16.4,18.4,16.4c3.3,0,5.1,2.5,5.5,7.5
		c-0.8,10.2-4.9,23.4-12.3,39.6c0.5,0,0.7,0.2,0.7,0.7c-0.7,0-1.4,0.9-2,2.7h0.7l-5.5,10.2h-0.7l0.7,1.4h-1.4l0.7,1.4h-1.4l0.7,1.4
		c-0.8,0-1.7,1.1-2.7,3.4h-0.7l0.7,1.4c-1.6,0.8-3.6,4-6.1,9.5c-0.6,0-2.2,1.8-4.8,5.5c-1.5,2.6-4,5.6-7.5,8.9
		c0,1.8-0.5,2.7-1.4,2.7c0-0.5-0.2-0.7-0.7-0.7c0,0.7-0.7,1.4-2,2c0-4.3-1.1-7.3-3.4-8.9l-13.6-13v-2c0.7,0,6.4,5.2,17.1,15.7v-8.2
		l-16.4-17.1c0.1-0.9,0.6-1.4,1.4-1.4c0,0.6,5,5.6,15,15h0.7v-7.5l-16.4-17.1v-2l17.1,16.4c0-4.1,0.2-6.8,0.7-8.2
		c-0.7,0-6.1-5.5-16.4-16.4v-2l16.4,15.7l0.7-6.8v-0.7l-16.4-17.1v-2l17.1,16.4c0-2.3,0.2-5,0.7-8.2c-0.7,0-6.1-5.5-16.4-16.4v-2
		L906,353l1.4-7.5c-0.7,0-6.1-5.5-16.4-16.4v-2c0.2,0,5.7,5.2,16.4,15.7l0.7-4.8v-2.7c0-0.7-5.5-6.1-16.4-16.4
		c0.5-0.9,0.7-1.6,0.7-2l16.4,15.7l0.7-6.8V325L893.1,308c0.1-0.9,0.6-1.4,1.4-1.4c0,0.6,5.2,5.8,15.7,15.7c0-4.1,0.7-6.1,2-6.1
		L897.2,300.5z M885.6,402.8h0.7c0.6,0,5.6,5,15,15l-2,1.4c0-0.8-4.5-5.8-13.6-15V402.8z M886.9,415.7c0.7,0,3.4,2.7,8.2,8.2
		c-0.5,0-1.1,0.2-2,0.7l-6.1-6.8V415.7z M890.3,425.3h2v0.7h-2V425.3z M897.8,275.9c0.6,0,2.8,2.3,6.8,6.8h-4.1l0.7-1.4
		c-2.5-2.3-3.9-3.4-4.1-3.4C897.6,277,897.8,276.4,897.8,275.9z M897.2,282.7h2.7v0.7h-2.7V282.7z M904.7,281.4h6.1v0.7h-6.1V281.4z
		 M904.7,407.5c14.2-16.1,25.6-35.9,34.1-59.3c3.6-12,5.5-20.9,5.5-26.6c-2.5-1.8-10.2-2.7-23.2-2.7h-6.8c-1.3,0-2.8,11.4-4.8,34.1
		C906.2,375.2,904.7,393.4,904.7,407.5z M938.8,280.7v0.7h1.4v-0.7H938.8z M968.1,288.2h1.4v0.7h-1.4V288.2z M970.1,289.5h1.4v0.7
		h-1.4V289.5z"/>
	<path d="M1059.1,250h2c6.8,0,15.5,9.1,25.9,27.3v0.7h3.4c2.6,0,4.2-0.2,4.8-0.7c30.7,0,51.4,6.6,62.1,19.8
		c10.5,9.2,15.7,20.3,15.7,33.4v1.4c0,22.2-13.2,51.7-39.6,88.7c-24.8,27.7-48.9,41.6-72.3,41.6c-14.4,0-26-8-34.8-23.9
		c-2.3-4.4-3.4-10.1-3.4-17.1c0-16.9,3-48.8,8.9-95.5h-2c-7.4,0-15.3-5.9-23.9-17.7c-0.9-1.7-1.4-3.5-1.4-5.5v-1.4
		c0-5.9,9.5-10.5,28.6-13.6c4.5-0.9,6.8-5.2,6.8-13C1042.5,267.4,1048.9,259.2,1059.1,250z M1059.1,254.1c0.5,0,0.7,0.2,0.7,0.7
		c-0.8,0-1.9,0.7-3.4,2c0-0.5-0.2-0.7-0.7-0.7l-1.4,2c0.5,0,0.7,0.2,0.7,0.7c-3.6,2.6-5.5,4.2-5.5,4.8c0.5,0,0.7,0.2,0.7,0.7
		c-0.9,0.5-1.6,0.7-2,0.7l0.7,1.4c-1.4,1.8-2.5,2.7-3.4,2.7l0.7,1.4h-1.4l0.7,1.4h-1.4c0,0.5,0.2,0.7,0.7,0.7l-5.5,15
		c-0.9,0.5-1.6,0.7-2,0.7v0.7h1.4v0.7c-2,0-6.6,1.1-13.6,3.4l-1.4-0.7h-0.7v0.7h1.4v0.7h-2l-1.4-0.7v0.7c0.5,0,0.7,0.2,0.7,0.7h-2
		l-1.4-0.7v0.7c0.5,0,0.7,0.2,0.7,0.7l-3.4,0.7l-1.4-0.7c-2.7,1-4.1,1.9-4.1,2.7c0.5,0,0.7,0.2,0.7,0.7c-1.9,0-3.3,1.6-4.1,4.8
		c2.6,6,7.4,11.5,14.3,16.4c2.4,1.7,6.2,3.1,11.6,4.1V323c-0.6,0-5.6-5-15-15h2.7c0.6,0,5.6,5,15,15c-6.4,44.8-9.5,79.1-9.5,103v0.7
		c0,10.1,6.8,19.7,20.5,28.6l4.1,2v-0.7c-0.6,0-4.9-4.3-13-13h2.7c10,10,15.5,15,16.4,15c2.4,0.5,4.7,0.7,6.8,0.7h1.4l-15.7-15.7
		l1.4-0.7l17.1,15.7c4.5-0.2,6.8-0.9,6.8-2c-0.6,0-5.6-5-15-15V441h1.4c0.2,0,5.7,5.2,16.4,15.7c4.1-0.8,6.1-1.7,6.1-2.7
		c-0.6,0-5.6-5-15-15v-0.7h1.4l16.4,15.7c3.6-1.6,5.5-2.7,5.5-3.4c-0.6,0-5.8-5.2-15.7-15.7c0.5,0,1.1-0.2,2-0.7
		c9.7,10.5,15.1,15.7,16.4,15.7c2.3-1.4,3.9-2,4.8-2v-0.7l-15.7-16.4l1.4-0.7h0.7c0.6,0,5.8,5.2,15.7,15.7c3.2-1.6,4.8-2.7,4.8-3.4
		l-15.7-16.4l1.4-0.7l16.4,15.7c2-0.8,3.6-2.2,4.8-4.1c-0.6,0-5.8-5.2-15.7-15.7c0.1-0.9,0.6-1.4,1.4-1.4c0,0.7,5.5,6.1,16.4,16.4
		c0-0.3,1.4-1.7,4.1-4.1l-16.4-17.1l1.4-0.7l17.1,16.4c0-0.2,1.4-1.8,4.1-4.8c-0.7,0-6.1-5.5-16.4-16.4c0.1-0.9,0.6-1.4,1.4-1.4
		c0,0.7,5.5,6.1,16.4,16.4l4.1-4.8c-0.7,0-6.1-5.5-16.4-16.4c0.1-0.9,0.6-1.4,1.4-1.4c0.2,0,5.7,5.2,16.4,15.7
		c0.7,0,1.8-1.4,3.4-4.1l-16.4-17.1l1.4-0.7l16.4,15.7c2.3-2,3.4-3.9,3.4-5.5c-0.6,0-5.8-5.2-15.7-15.7v-1.4h0.7l16.4,15.7h0.7
		c0-0.6,0.9-2.4,2.7-5.5c-0.7,0-6.1-5.5-16.4-16.4l1.4-0.7c0.2,0,5.7,5.2,16.4,15.7c1.8-3.5,2.7-5.6,2.7-6.1
		c-0.7,0-6.1-5.5-16.4-16.4l1.4-0.7c0.2,0,5.7,5.2,16.4,15.7c1.8-3.3,2.7-5.3,2.7-6.1l-16.4-15.7c0.5-0.9,0.7-1.6,0.7-2h0.7
		c0.2,0,5.7,5.2,16.4,15.7c1.8-2.6,2.7-4.4,2.7-5.5c-0.7,0-6.1-5.5-16.4-16.4c0.1-0.9,0.6-1.4,1.4-1.4c0,0.7,5.5,6.1,16.4,16.4
		l2-6.8l-16.4-15.7c0.5-0.9,0.7-1.6,0.7-2l17.1,16.4c1.4-3,2-5,2-6.1l-16.4-17.1c0.1-0.9,0.6-1.4,1.4-1.4c0,0.7,5.5,6.1,16.4,16.4
		c0-0.2,0.7-2.5,2-6.8l-17.1-16.4c0.5-0.9,0.7-1.6,0.7-2l17.1,16.4c0.9-3.2,1.4-5.7,1.4-7.5c-0.7,0-6.1-5.5-16.4-16.4v-2l17.1,16.4
		l0.7-4.8v-2.7l-16.4-17.1v-2c0.2,0,5.7,5.2,16.4,15.7v-1.4c0-6.7-3.2-12.2-9.5-16.4c-5.9-5.9-8.9-9.8-8.9-11.6l15.7,15
		c-4.2-9.8-13.1-19.1-26.6-28c-0.9,0-1.4-0.2-1.4-0.7l-1.4,0.7c-1.8-0.9-3.4-1.4-4.8-1.4l0.7-1.4l-1.4,0.7h-1.4l0.7-1.4l-1.4,0.7h-2
		v-0.7h1.4v-0.7h-0.7c-0.8,0.5-1.7,0.7-2.7,0.7h-0.7l0.7-1.4c-0.5,0-1.1,0.2-2,0.7c-3.2-0.5-5.9-0.7-8.2-0.7V282h2v-0.7h-0.7
		c-2.5,0.5-4.5,0.7-6.1,0.7h-3.4c-0.9,0-1.4-0.5-1.4-1.4l-1.4,0.7H1083c0-0.9-4.8-6.1-14.3-15.7v-2l15.7,15v-0.7
		c-8.8-15.5-16.7-23.9-23.9-25.2C1059.6,252.8,1059.1,253.3,1059.1,254.1z M1060.5,256.1c5,4.3,7.5,8.4,7.5,12.3l-1.4,17.1
		c8.2-1.4,17.1-2.3,26.6-2.7c28.4,0,45.9,4.3,52.5,13c4.5,4.1,6.8,9.5,6.8,16.4c0,16.8-9.1,41.2-27.3,73
		c-27.1,38.2-54.8,57.3-83.2,57.3c-10,0-15-5.7-15-17.1c0-22.3,4.3-63,13-122.1c-9.9,1.8-17.2,3-21.8,3.4c-6.4-0.9-9.5-2-9.5-3.4
		v-0.7c0-2.6,11.1-6.9,33.4-13C1042.1,277.8,1048.2,266.7,1060.5,256.1z M1013.4,295.7h1.4v0.7h-1.4V295.7z M1029.8,306.6
		c0.6,0,2.8,2.3,6.8,6.8v2c-0.7,0-3.4-2.7-8.2-8.2L1029.8,306.6z M1038.7,288.2h2v0.7h-2V288.2z M1064.6,298.4
		c-6.4,44.8-9.5,77.8-9.5,98.9c0.2,18.3,2.7,28.5,7.5,30.7h0.7c11.1-8.3,22.1-20.8,32.7-37.5c15.9-29.6,23.9-52.1,23.9-67.5v-2
		c0-11.5-10-18.8-30-21.8C1078.3,298.6,1069.9,298.4,1064.6,298.4z M1068.7,300.5h2.7l16.4,15.7h7.5l-15-15.7h2
		c10.5,10.5,16.1,15.7,17.1,15.7c0.8,0,3.5,0.2,8.2,0.7l-15-15.7h2c10.8,10.9,16.9,16.4,18.4,16.4c3.3,0,5.1,2.5,5.5,7.5
		c-0.8,10.2-4.9,23.4-12.3,39.6c0.5,0,0.7,0.2,0.7,0.7c-0.7,0-1.4,0.9-2,2.7h0.7l-5.5,10.2h-0.7l0.7,1.4h-1.4l0.7,1.4h-1.4l0.7,1.4
		c-0.8,0-1.7,1.1-2.7,3.4h-0.7l0.7,1.4c-1.6,0.8-3.6,4-6.1,9.5c-0.6,0-2.2,1.8-4.8,5.5c-1.5,2.6-4,5.6-7.5,8.9
		c0,1.8-0.5,2.7-1.4,2.7c0-0.5-0.2-0.7-0.7-0.7c0,0.7-0.7,1.4-2,2c0-4.3-1.1-7.3-3.4-8.9l-13.6-13v-2c0.7,0,6.4,5.2,17.1,15.7v-8.2
		l-16.4-17.1c0.1-0.9,0.6-1.4,1.4-1.4c0,0.6,5,5.6,15,15h0.7v-7.5l-16.4-17.1v-2l17.1,16.4c0-4.1,0.2-6.8,0.7-8.2
		c-0.7,0-6.1-5.5-16.4-16.4v-2l16.4,15.7l0.7-6.8v-0.7l-16.4-17.1v-2l17.1,16.4c0-2.3,0.2-5,0.7-8.2c-0.7,0-6.1-5.5-16.4-16.4v-2
		l16.4,15.7l1.4-7.5c-0.7,0-6.1-5.5-16.4-16.4v-2c0.2,0,5.7,5.2,16.4,15.7l0.7-4.8v-2.7c0-0.7-5.5-6.1-16.4-16.4
		c0.5-0.9,0.7-1.6,0.7-2l16.4,15.7l0.7-6.8V325l-16.4-17.1c0.1-0.9,0.6-1.4,1.4-1.4c0,0.6,5.2,5.8,15.7,15.7c0-4.1,0.7-6.1,2-6.1
		L1068.7,300.5z M1057.1,402.8h0.7c0.6,0,5.6,5,15,15l-2,1.4c0-0.8-4.5-5.8-13.6-15V402.8z M1058.5,415.7c0.7,0,3.4,2.7,8.2,8.2
		c-0.5,0-1.1,0.2-2,0.7l-6.1-6.8V415.7z M1061.9,425.3h2v0.7h-2V425.3z M1069.4,275.9c0.6,0,2.8,2.3,6.8,6.8h-4.1l0.7-1.4
		c-2.5-2.3-3.9-3.4-4.1-3.4C1069.1,277,1069.4,276.4,1069.4,275.9z M1068.7,282.7h2.7v0.7h-2.7V282.7z M1076.2,281.4h6.1v0.7h-6.1
		V281.4z M1076.2,407.5c14.2-16.1,25.6-35.9,34.1-59.3c3.6-12,5.5-20.9,5.5-26.6c-2.5-1.8-10.2-2.7-23.2-2.7h-6.8
		c-1.3,0-2.8,11.4-4.8,34.1C1077.8,375.2,1076.2,393.4,1076.2,407.5z M1110.3,280.7v0.7h1.4v-0.7H1110.3z M1139.6,288.2h1.4v0.7
		h-1.4V288.2z M1141.7,289.5h1.4v0.7h-1.4V289.5z"/>
	<path d="M1217.5,236.3h1.4c5.2,0,11.1,5.7,17.7,17.1c1.8,4.1,2.7,8.9,2.7,14.3c0,2.8-1.8,17.4-5.5,43.7
		c-1.8,23.2-2.7,46.8-2.7,70.9v4.8c0.2,29.6,1.4,44.3,3.4,44.3c7.4,0.9,13.1,1.4,17.1,1.4c12.6,0,23.8-7,33.4-21.1l3.4-2
		c8.9,1.9,18.2,8.1,28,18.4c3.2,4.2,4.8,8.1,4.8,11.6v1.4c0,14.1-23.2,25.7-69.6,34.8c-6.8,0.5-11.6,0.7-14.3,0.7
		c-24.6,0-43.4-8.9-56.6-26.6c-4.1-5.6-6.1-18.5-6.1-38.9v-17.7c0-36.7,3.2-77.9,9.5-123.4C1191.5,247.5,1202.6,236.3,1217.5,236.3z
		 M1213.5,239.1v0.7h1.4v0.7c-1.5,0-2.6,0.2-3.4,0.7l-1.4-0.7c-3.6,1.4-5.5,3-5.5,4.8l-1.4-0.7h-0.7c-0.7,0-2,1.4-4.1,4.1
		c0.5,0,0.7,0.2,0.7,0.7c-5.2,3.1-9.3,10.8-12.3,23.2l-2,8.9h0.7l-4.1,30l0.7,1.4c-2.7,24.4-4.1,43.1-4.1,55.9l-0.7,1.4
		c0,0.5,0.2,0.7,0.7,0.7l-0.7,3.4v9.5c0,7.4-0.2,12.8-0.7,16.4c0.5,30.5,2,45.7,4.8,45.7c8.8,11.7,16.7,18.8,23.9,21.1v-0.7
		c-0.6,0-4.7-4.1-12.3-12.3h1.4c0.8,0,6.5,5.2,17.1,15.7l10.9,2.7l-14.3-15h2.7c10.5,10.5,16.1,15.7,17.1,15.7
		c4,0.5,6.5,0.7,7.5,0.7l-15-15.7h2c0.2,0,5.7,5.2,16.4,15.7h6.1c0.9,0,1.4-0.5,1.4-1.4c-0.6,0-5.6-5-15-15h2
		c0.2,0,5.7,5.2,16.4,15.7c3.1-0.5,5.6-0.7,7.5-0.7l-15-15.7l1.4-0.7l16.4,15.7c3.9-0.9,6.1-1.4,6.8-1.4l-15-15.7l1.4-0.7
		c0.6,0,5.8,5.2,15.7,15.7c4.5-0.8,6.8-1.7,6.8-2.7c-0.6,0-5.6-5-15-15v-0.7h2l16.4,15.7c3.1-1.4,4.9-2,5.5-2l-15.7-16.4
		c0.5,0,1.1-0.2,2-0.7l15.7,16.4c3-1.4,5-2,6.1-2v-0.7l-15.7-16.4h2l16.4,15.7c4.1-1.4,6.1-2.5,6.1-3.4
		c-6.9-5.9-12.4-11.1-16.4-15.7l1.4-0.7l17.7,16.4c0-0.9,1.6-1.8,4.8-2.7v-0.7l-16.4-16.4v-0.7h2v1.4l1.4-0.7c0,0.6,5,5.6,15,15
		c0.7,0,2.3-1.6,4.8-4.8l-16.4-15.7c0.5-0.9,0.7-1.6,0.7-2l17.1,16.4c0.9-3,1.4-5,1.4-6.1c-12.3-12.4-18.4-19.2-18.4-20.5v-0.7
		l17.7,17.1v-0.7c-3.2-6.6-9.5-12.7-19.1-18.4v0.7c0.5,0,0.7,0.2,0.7,0.7h-0.7c-3.4-2.7-6.1-4.1-8.2-4.1l0.7-1.4
		c-0.9,0.5-1.6,0.7-2,0.7h-0.7V413h1.4v-0.7h-1.4l-2.7,3.4h0.7c-0.7,1.8-1.4,2.7-2,2.7v-1.4h-0.7c0,1.4-1.4,3-4.1,4.8l0.7,1.4
		l-0.7,1.4l-1.4-0.7c-0.7,0-2,1.4-4.1,4.1l0.7,1.4c-0.9,0-1.4,0.2-1.4,0.7l-1.4-0.7c-2.6,1.8-4.4,2.7-5.5,2.7v0.7h1.4v0.7
		c-1,0-1.9,0.2-2.7,0.7c-0.9-0.5-1.6-0.7-2-0.7l0.7,1.4h-1.4l-1.4-0.7h-0.7v0.7h1.4v0.7h-2c-0.9-0.5-1.6-0.7-2-0.7l0.7,1.4h-17.7
		v-0.7h2.7v-0.7h-1.4l-6.1,0.7h-1.4v-0.7h2v-0.7h-1.4l-3.4,0.7l-4.1-0.7v-0.7h2l-15-15.7v-2l16.4,15.7c-1.1-8.6-2.7-13-4.8-13
		c-9.1-8.8-13.6-14.2-13.6-16.4v-0.7l16.4,15.7v-7.5l-17.1-17.7v-2c0.2,0,5.7,5.2,16.4,15.7v-8.2l-16.4-17.1v-2
		c0.2,0,5.7,5.2,16.4,15.7v-8.2l-16.4-17.1v-2c0.2,0,5.7,5.2,16.4,15.7v-8.2l-16.4-17.1v-2c0.2,0,5.7,5.2,16.4,15.7v-8.2l-16.4-17.1
		v-2.7c0.2,0,5.7,5.2,16.4,15.7l0.7-6.8c0-0.7-5.7-6.4-17.1-17.1c0.5-0.9,0.7-1.6,0.7-2l16.4,15.7V340l-16.4-17.1v-2l17.1,16.4v-8.2
		l-16.4-17.1v-2l16.4,15.7h0.7v-7.5l-16.4-17.1v-2l17.1,16.4c0-4.1,0.2-6.8,0.7-8.2c-0.7,0-6.1-5.5-16.4-16.4v-2.7l16.4,15.7
		l0.7-3.4V297l-16.4-17.1v-1.4h0.7l16.4,15.7c0.5-4.3,0.9-6.8,1.4-7.5c-0.7,0-6.4-5.7-17.1-17.1v-1.4h0.7c0.2,0,5.7,5.2,16.4,15.7
		h0.7v-0.7l0.7-6.8c-0.7,0-6.1-5.5-16.4-16.4v-2l16.4,15.7h0.7v-7.5l-16.4-17.1v-2l15.7,15v-0.7c0-7.7-5.5-15.2-16.4-22.5l-3.4,0.7
		c-0.9-0.5-1.6-0.7-2-0.7H1213.5z M1216.9,241.8h0.7c0.9,4,1.4,6.7,1.4,8.2c-5.9,34.9-8.9,74.5-8.9,118.7c0,43.2,4.1,64.8,12.3,64.8
		c6.9,3.2,17.2,4.8,30.7,4.8c13.6,0,25.7-7.5,36.1-22.5c7.3,2,10.9,5,10.9,8.9v1.4c0,7.8-17.7,17.2-53.2,28c-6.6,1.4-14.3,2-23.2,2
		h-2.7c-27.7,0-41.6-7.7-41.6-23.2c-0.5-14.8-0.7-25.7-0.7-32.7c0-34,3.2-76.5,9.5-127.5c3.2-12.5,9.3-21.6,18.4-27.3
		C1211.2,242.9,1214.6,241.8,1216.9,241.8z M1202.5,245.2h1.4v0.7h-1.4V245.2z M1206.6,242.5h1.4v0.7h-1.4V242.5z M1208,241.8h1.4
		v0.7h-1.4V241.8z M1209.4,241.1h1.4v0.7h-1.4V241.1z M1218.9,429.4h1.4v0.7h-1.4V429.4z M1221,430.7h1.4v0.7h-1.4V430.7z
		 M1222.3,431.4h1.4v0.7h-1.4V431.4z M1223.7,432.1h2v0.7h-2V432.1z M1225.7,432.8h2v0.7h-2V432.8z M1268,432.1h1.4v0.7h-1.4V432.1z
		 M1269.4,431.4h1.4v0.7h-1.4V431.4z M1271.4,430h1.4v0.7h-1.4V430z"/>
</g>
<g>
</g>
<g>
</g>
<g>
</g>
<g>
</g>
<g>
</g>
<g>
</g>
<g>
</g>
<g>
</g>
<g>
</g>
<g>
</g>
<g>
</g>
<g>
</g>
<g>
</g>
<g>
</g>
<g>
</g>
</svg>
