<?xml version="1.0" encoding="utf-8"?>
<!-- Generator: Adobe Illustrator 24.3.0, SVG Export Plug-In . SVG Version: 6.00 Build 0)  -->
<svg version="1.2" baseProfile="tiny" id="图层_1"
	 xmlns="http://www.w3.org/2000/svg" xmlns:xlink="http://www.w3.org/1999/xlink" x="0px" y="0px" viewBox="0 0 1366 768"
	 overflow="visible" xml:space="preserve">
<g>
	<path d="M564,353.7c4.5,1.6,7.8,4.3,9.8,7.9c0,0.1,0.1,0.5,0.3,1.1h2.2l1.4,0.3c-0.4-2.7-0.6-4.2-0.6-4.5c0.1-1.7,0.4-2.5,0.8-2.5
		v0.6c0,0.6-0.1,1.1-0.3,1.4l0.8,7c-0.2,0.4-0.3,0.6-0.3,0.8h-0.3c0-1.7-0.3-2.5-0.8-2.5c-0.7-0.2-1.5-0.3-2.2-0.3h-1.7
		c0-1-1-2.1-3.1-3.4v-1.1l1.7,1.4v-0.3c-3.3-3.1-5.9-5-7.9-5.6c0,1.8-1.5,4.7-4.5,8.7c-2.2,4-3.4,6.4-3.4,7c0,0.4,0.4,0.6,1.1,0.6
		v0.3h-0.6c1.5,2.1,2.8,3.1,3.9,3.1l-3.1-3.4V370h0.3l3.4,3.1h0.3c0.4,0,0.6-0.2,0.6-0.6c-0.3,0-1.3-1-3.1-3.1
		c0.2,0,0.5-0.1,0.8-0.3c0,0.4,1,1.6,3.1,3.7c-0.3,0-0.5,0.3-0.8,0.8v0.3c0,0.2,0.8,1.1,2.5,2.5v-0.6h0.3v0.8l-0.3,0.6
		c0.2,0.3,0.3,0.7,0.3,1.1v0.8c-4.9,1.1-7.3,2.1-7.3,3.1c0,0.6,0.4,0.8,1.1,0.8c0,0.2-0.1,0.3-0.3,0.3c0,0.6,0.8,1.5,2.5,2.5v-0.3
		c-0.2,0-1-0.8-2.2-2.2h0.6c2.2,2.2,3.6,3.4,4.2,3.4c0.3,0.2,0.7,0.3,1.1,0.3c-1.6-2.1-2.9-3.1-3.9-3.1v-0.3h1.7
		c0,0.3,1.1,1.4,3.4,3.4l0.6-0.3c0,0.6,0.3,1.8,0.8,3.7l-0.6,0.3h-0.3c0-0.2,0.1-0.3,0.3-0.3c0-1.9-0.8-2.8-2.2-2.8
		c-2.9,0-5.3-1.5-7-4.5v-0.6c0-1.6,2.3-2.8,7-3.7v-1.1c-1.7-1.3-2.5-2.6-2.5-3.9l-1.4,0.3h-0.3c-1.4,0-2.8-1.3-4.2-3.9v-1.1
		c0.1-1.2,2.7-5.7,7.6-13.5C563.4,354.4,563.6,353.7,564,353.7z M564.6,354.6c3.6,1.7,5.3,3.3,5.3,4.8c-5.7,7.1-10.2,10.7-13.5,10.7
		v-0.3c0.4-1.8,3-6.3,7.6-13.5C564,355.1,564.2,354.6,564.6,354.6z M578.6,355.7c3.7,0,5.6,0.8,5.6,2.2c4.4-0.6,6.8-0.8,7.3-0.8
		c0.4,0.6,0.6,1.2,0.6,1.7c0,1.6-2.6,3-7.9,4.2c0,1.5-0.3,3.6-0.8,6.2c3-1.5,5.5-2.3,7.6-2.5c0.6,0.7,0.8,1.6,0.8,2.5
		c-1.3,1.3-3,2.7-5.1,4.2c1.2,0.1,3.2,0.8,5.9,2.2v0.3c-0.1,0.6-1.8,2.3-5.1,5.1c7.8-1.3,12.1-2,12.9-2c2.5,0,4,1.7,4.5,5.1v0.6
		c-0.9,5.6-1.4,9-1.4,10.4v0.3c0.9,1,1.4,1.6,1.4,2c0,1.9-5.1,2.8-15.2,2.8c-4.4,0-7.1-0.9-8.2-2.8c0.4-0.7,0.6-1.8,0.6-3.1
		c0-3.3-0.3-6.5-0.8-9.6l0.8-3.7h1.1c0.8,0,2,2.3,3.7,7l1.4-0.3h9.3c0.4,0,0.6,0.2,0.6,0.6v0.6c0,1.1-3.5,2-10.4,2.5
		c-0.2,2.4-0.4,3.7-0.6,3.9c2.5-0.2,4.4-0.3,5.6-0.3h6.2v-9.6l0.3-3.4c-0.6,0.4-1.2,0.6-1.7,0.6c-3.8,0-6.7,0.2-8.7,0.6
		c-1.9,0-3.2-1.4-3.9-4.2v-2c0-1,0.3-1.8,0.8-2.5v-0.3h-0.6c-1.3,1-3.3,1.8-6.2,2.2c-0.7,0-1.5-1.1-2.5-3.4c-4.1,1.1-6.2,1.7-6.2,2
		c1.1,0.2,1.7,0.5,1.7,0.8v2.8h5.3c0.3,0,0.6,0.3,0.8,0.8v0.8c0,0.6-2.1,1.4-6.2,2.5c0,0.7-0.4,3-1.1,6.8c1.9-0.6,4-0.8,6.5-0.8h0.8
		v0.8c-5.3,3.9-9.8,5.9-13.5,5.9c-1.3-0.1-2-0.7-2-1.7c0-0.7,1.5-1.8,4.5-3.4c-1-4.5-1.7-6.8-2-6.8h-0.3c-4.9-0.1-7.3-0.6-7.3-1.4
		c0-0.8,2.3-1.8,7-2.8h0.3v-1.1c0-0.4-0.1-0.8-0.3-1.1c0.2-0.3,0.3-0.7,0.3-1.1v-1.1c-1.9-0.2-2.8-0.6-2.8-1.1c0-1.8,4.3-3,12.9-3.7
		c1.1,0,1.7,0.7,1.7,2c2.1-0.9,3.1-1.6,3.1-2c-0.9-4.6-1.6-8.7-2-12.4C578.4,356.8,578.6,356.1,578.6,355.7z M563.7,366.4
		c0.4,0,1.3,0.9,2.8,2.8c0.8,0.8,1.5,1.1,2,1.1v0.6c-1.2,0-2.9,0.5-5.1,1.4l0.3-0.6c-0.3,0-1.3-1-3.1-3.1l0.6-0.3
		c0,0.3,1,1.3,3.1,3.1h0.3c0.4,0,0.6-0.2,0.6-0.6c-1.9-1.9-3-2.8-3.4-2.8v-0.3c0.2,0,0.5-0.1,0.8-0.3c0,0.3,1,1.3,3.1,3.1
		c0.3,0,0.6-0.3,0.8-0.8c-0.3,0-1.3-1-3.1-3.1C563.6,366.7,563.7,366.6,563.7,366.4z M594.1,352.3h0.6c2.1,0.1,4.5,1.3,7,3.7
		c0.6-1.2,1.4-2.2,2.5-3.1c2.7,0,5.6,2.2,8.7,6.8v1.4c0,1.3-1.3,2.8-3.9,4.5v0.3c3.2,1.6,4.8,3.3,4.8,5.1c-1.5,4.1-3.7,6.2-6.8,6.2
		h-2.2c-2.7,0-5.8-2.2-9.3-6.8l0.3,0.6v0.8c0,0.9-0.8,2.1-2.2,3.7v0.3c1.9,1.1,2.8,2.1,2.8,3.1c0.5,0,1.7-0.2,3.7-0.6
		c3.4,0,6.4,2.5,9,7.6v3.7c0,1.3-0.5,4.1-1.4,8.4c0.9,0.6,1.4,1.7,1.4,3.4c-0.8,2.1-4.6,3.1-11.2,3.1h-3.4c-7.5,0-11.9-2.2-13.2-6.8
		v-0.3l0.3-2.8h-0.3c-5,3.6-9.2,5.3-12.7,5.3c-3.3-0.4-5.3-2.2-6.2-5.6v-0.6h0.3c0.7,2.3,1.9,3.9,3.7,4.8v-0.3
		c-0.2,0-1.1-0.8-2.5-2.5h0.3c0.3,0,1.6,1.1,3.9,3.4h1.4l-2.8-3.1l0.6-0.3h0.6l-0.3,0.6l3.1,2.8h0.3c0.4,0,0.6-0.2,0.6-0.6
		c-0.3,0-1.3-1-3.1-3.1h0.8l3.4,3.1h0.3c0.4,0,0.6-0.2,0.6-0.6c-0.3,0-1.3-1-3.1-3.1c0.2,0,0.5-0.1,0.8-0.3c0,0.5,1,1.6,3.1,3.4
		c0.4-0.2,0.7-0.3,0.8-0.3l-3.1-3.4v-0.3h0.3l3.4,3.1h0.3c0.4,0,0.6-0.2,0.6-0.6l-2.8-3.1v-0.3h0.3l3.4,3.1c0.4,0,0.6-0.2,0.6-0.6
		l-2.8-3.1c0.1-0.4,0.3-0.6,0.6-0.6c0,0.5,1,1.6,3.1,3.4c0.3,0,0.6-0.3,0.8-0.8c-1.9-1.9-3-2.8-3.4-2.8c0.1-0.4,0.3-0.6,0.6-0.6
		l3.4,3.1h0.3c0.4,0,0.6-0.2,0.6-0.6c-0.3,0-1.4-1.1-3.4-3.4c0.2,0,0.5-0.1,0.8-0.3c0,0.5,1,1.6,3.1,3.4l0.3-0.6v-0.6
		c0-0.3-0.9-1.2-2.8-2.8c0,0.2-0.1,0.3-0.3,0.3c0-0.8-0.2-1.1-0.6-1.1h-2.8c0-0.4-1-1.6-3.1-3.7v-0.6l3.4,3.1c0-0.4,0.1-0.8,0.3-1.1
		c-1.9-1.9-3-2.8-3.4-2.8c0.1-0.4,0.3-0.6,0.6-0.6c2.1,2.1,3.3,3.1,3.7,3.1c0.4-0.2,0.7-0.3,0.8-0.3l-2.8-3.1v-0.3h0.3l3.4,3.1h0.8
		v-0.3l-2.8-3.1v-0.3h0.3l3.4,3.1h0.6l0.6-0.3c0.6,2.9,0.8,6.2,0.8,9.8c-0.1,1.7-0.3,2.5-0.6,2.5c0,1.3,1.7,3,5.1,5.3l1.1,0.6v-0.3
		c-0.3,0-1.2-0.9-2.8-2.8h0.3c0.3,0,1.6,1.1,3.9,3.4l1.4,0.3l-2.8-3.1h0.6l3.4,3.1h1.4l-2.8-3.1h0.6l3.7,3.4h1.1l-3.1-3.4h0.6
		l3.7,3.4h1.4c-2.1-2.2-3.1-3.3-3.1-3.4l1.4-0.3h1.4l3.7,3.4h0.8v-0.3l-2.8-3.1v-0.3h1.1l-0.3,0.6l3.1,2.8h0.3
		c0.4,0,0.6-0.2,0.6-0.6c-0.3,0-1.2-0.9-2.8-2.8v-0.3h0.8c0,0.4,0.9,1.5,2.8,3.4c0.3-0.2,0.7-0.3,1.1-0.3v-0.3l-2.8-3.1V399h0.3
		l3.4,3.1h0.3c0.4,0,0.6-0.2,0.6-0.6c-0.3,0-1.3-1-3.1-3.1v-0.3h0.3l3.1,2.8h0.3c0-1.2-1.2-2.8-3.7-4.8l-0.8-1.1v-0.6l3.1,2.8
		c0-0.4,0.1-0.8,0.3-1.1l-3.1-2.8c0,0.2-0.1,0.3-0.3,0.3v-1.1h0.3l3.1,2.8l0.3-1.4l-3.1-2.8v0.6h-0.3v-0.6c0.2-0.4,0.3-0.7,0.3-0.8
		l3.4,3.1v-1.1c-2.1-2.1-3.1-3.3-3.1-3.7v-1.1h0.3c0,1.1,1,2.4,3.1,3.9c0-0.6,0.1-1.1,0.3-1.4c-2.2-1.8-3.4-2.8-3.4-3.1v-0.8h0.3
		c0,0.6,1,1.7,3.1,3.1V388l-3.1-3.4v-0.6l3.1,2.8c0-1.2-1-2.6-3.1-4.2c0,0.2-0.1,0.3-0.3,0.3c0-2.2-1.5-3.6-4.5-4.2
		c-1,0-3,0.3-5.9,0.8l0.3-0.6c-1.3-1.3-2.2-2-2.5-2c0.2-0.4,0.3-0.7,0.3-0.8l3.1,2.8c-0.2-0.8-1.3-2-3.4-3.7l0.3-0.6
		c-2.1-2.2-3.1-3.3-3.1-3.4l0.6-0.3c0,0.3,1,1.3,3.1,3.1c0.3,0,0.6-0.3,0.8-0.8c-0.3,0-1.3-1-3.1-3.1c0.1-0.4,0.3-0.6,0.6-0.6
		c0,0.5,1,1.6,3.1,3.4l0.3-0.6v-0.3l-2.8-3.1v-0.6l2.8,2.5v-0.3c-0.4-1.1-1.3-2.3-2.8-3.4c0,0.2-0.1,0.3-0.3,0.3
		c0-0.6-0.3-1-0.8-1.4c-0.2,0-1.5,0.3-3.9,0.8l0.3-0.6c-0.3,0-1.2-0.9-2.8-2.8v-0.6l3.4,3.1c0.4-0.2,0.7-0.3,0.8-0.3l-2.8-3.1v-0.3
		h0.3c0.1,0,1.2,1,3.4,3.1h0.6c0.4,0,0.6-0.2,0.6-0.6c-0.3,0-1.2-0.9-2.8-2.8v-0.3h0.3l3.4,3.1h0.8V365l-2.8-3.1v-0.3h0.3l3.4,3.1
		l0.6-0.3c0.6,2.7,2,5.3,4.2,7.6c0.2,0,1.4,1,3.4,3.1c0.6,0.4,1.4,0.8,2.2,1.1v-0.3c-0.3,0-1.2-0.9-2.8-2.8h3.4
		c0,0.4,0.9,1.5,2.8,3.4c0.3-0.2,0.8-0.3,1.4-0.3v-0.3l-2.8-3.1v-0.3h0.3l3.4,3.1c0.4-0.2,0.7-0.3,0.8-0.3L607,372v-0.3h0.3l3.4,3.1
		l0.6-0.8c-0.3,0-1.3-1-3.1-3.1c0.1-0.4,0.3-0.6,0.6-0.6c0,0.5,1,1.6,3.1,3.4c0-0.3,0.2-0.7,0.6-1.1c-1.9-1.9-3-2.8-3.4-2.8
		c0.2-0.4,0.3-0.7,0.3-0.8l3.4,3.1l0.3-0.6v-0.3c-2.1-2.2-3.1-3.3-3.1-3.4l0.6-0.3c0,0.2,0.8,1,2.2,2.2v-0.3
		c-2.5-2.4-3.9-3.7-4.2-3.7c-0.3,0.2-0.7,0.3-1.1,0.3l0.3-0.6c-0.3,0-1.3-1-3.1-3.1h0.6l3.1,2.8h0.3c0.4,0,0.6-0.2,0.6-0.6
		c-2.1-2.2-3.1-3.3-3.1-3.4l0.6-0.3c0,0.3,1,1.3,3.1,3.1c0.4,0,0.6-0.2,0.6-0.6l-2.8-3.1v-0.3h0.3l3.1,2.8c0.3,0,0.6-0.3,0.8-0.8
		c-1.9-1.9-3-2.8-3.4-2.8c0.1-0.4,0.3-0.6,0.6-0.6l3.4,3.1l0.3-1.1c-0.3,0-1.3-1-3.1-3.1v-0.6l2.8,2.5c-3.3-4.3-5.9-6.5-7.9-6.5
		c-1.9,2.2-2.8,3.6-2.8,3.9h-0.3c-1.9-3-4.2-4.5-7-4.5c-0.6,0.6-0.8,2.6-0.8,5.9H593c0-0.2-0.5-0.8-1.4-1.7h0.6l0.6,0.3
		C592.7,353.9,593.2,352.3,594.1,352.3z M564.8,391.4c-1.3,1-2,1.8-2,2.2h-0.3v-0.8C563.6,391.9,564.3,391.4,564.8,391.4z
		 M562.9,372.3h0.6v0.3h-0.6V372.3z M564,384.1h0.6c0.1,0,0.4,0.2,0.8,0.6c0-0.2,0.1-0.3,0.3-0.3l0.3,1.7
		C565.7,386.1,565,385.4,564,384.1z M564.3,375.4h0.6v0.3h-0.6V375.4z M576.1,363.3c1.1,0.2,1.7,0.5,1.7,0.8v2
		c-2.9,1.1-6,1.7-9.3,1.7c-2.6-0.4-3.9-0.8-3.9-1.4C565.6,364.3,569.4,363.3,576.1,363.3z M564.8,391.1h0.6v0.3h-0.6V391.1z
		 M566.5,367.8h0.6c2.1,1.7,3.2,2.5,3.4,2.5v0.3h-0.8c-1.7-1.7-2.7-2.5-3.1-2.5V367.8z M567.7,362.7c0,0.3,0.2,0.7,0.6,1.1h-0.6
		c-0.4-0.2-0.6-0.3-0.8-0.3C566.8,363.3,567.1,363,567.7,362.7z M568.8,361.6l1.4,1.7l-1.1,0.3l0.3-0.6c-0.3,0-0.7-0.4-1.1-1.1
		L568.8,361.6z M571.3,367.8h0.8c0.2,0,1,0.8,2.2,2.2v0.3h-2.5c-1.1-1.3-2.3-2-3.7-2v-0.3h2.2c0,0.3,0.7,0.9,2,2h1.1
		c-0.9-1.3-1.7-2-2.2-2V367.8z M569.9,360.2l2.8,3.1h-2V363h0.6c-0.9-1.3-1.7-2-2.2-2C569.1,360.8,569.3,360.5,569.9,360.2z
		 M575.5,373.7h0.3c0.1,0,2.2,2.1,6.2,6.2h1.4c-1.7-2.1-2.9-3.1-3.7-3.1v-0.3h1.1l3.4,3.1h0.3v-1.1l-2-2.2v-0.3l2,1.7v-1.4h0.3
		c0,4.7,1.2,7,3.7,7l-0.3,0.6c1.7,1.9,3.2,2.8,4.5,2.8c-1.7-2.1-2.9-3.1-3.4-3.1v-0.3h2.2v0.3h-0.8c0,0.3,1,1.3,3.1,3.1h1.1
		l-3.1-3.4h0.8l3.4,3.1h1.1c-1.7-2.1-2.9-3.1-3.4-3.1V383h2v0.3h-0.6c1.7,2.1,2.9,3.1,3.7,3.1v7.9c0,0.4-0.2,0.6-0.6,0.6h-4.2
		c-0.3,0-1.4-1.1-3.4-3.4h0.6l3.4,3.1h1.1c-1.6-2.1-2.9-3.1-3.9-3.1v-0.3h1.7c0,0.3,1,1.3,3.1,3.1h1.4c-1.6-2.1-2.9-3.1-3.9-3.1
		v-0.3c0.6,0,1.2-0.1,2-0.3l-0.3,0.6l2.8,2.5v-1.1l-2-2.2h0.6c0.8,0.8,1.3,1.1,1.4,1.1v-0.8c0-0.4-0.1-0.8-0.3-1.1
		c0.2-0.3,0.3-0.7,0.3-1.1c0-0.9-0.2-1.4-0.6-1.4h-1.1v0.3h1.1v0.3h-9c-2.2-1.8-3.4-3.1-3.4-3.9l2.2,2v-0.3
		c-2.2-3.2-4.4-4.8-6.5-4.8c0-0.2-0.3-0.4-0.8-0.6v0.3l1.1,0.8c0-0.2,0.1-0.3,0.3-0.3l-0.3,1.7h-0.3l-2.5-2.2v0.6h-0.3
		c0-1.5-0.3-2.2-0.8-2.2H573c-0.4,0-0.6-0.2-0.6-0.6v-2.5c-0.6,0-0.8-0.2-0.8-0.6l1.1-0.3l-0.3,0.6l3.1,2.8c0.4-0.2,0.7-0.3,0.8-0.3
		l-2.8-3.1v-0.3h0.3c2.1,2.1,3.3,3.1,3.7,3.1c0.4-0.2,0.7-0.3,0.8-0.3l-2.8-3.1V373.7z M571.6,387.8h0.3v0.6h-0.3V387.8z
		 M571.6,388.6c0.3,0.2,0.7,0.3,1.1,0.3v0.3h-1.1V388.6z M571.9,386.1h0.3c0.2,1,1.1,1.8,2.5,2.5v0.3h-0.8c-0.8-0.3-1.5-0.9-2-1.7
		V386.1z M572.7,376.2v1.4c0.1,0.4,0.3,0.6,0.6,0.6h1.4C574.7,377.9,574,377.3,572.7,376.2z M575.8,366.9h0.6c0.3,0,1.4,1.1,3.4,3.4
		v0.3c-0.2,0-1,0.4-2.2,1.1c-1.9-2.6-3.3-3.9-4.2-3.9v-0.3h1.1c0.2,0,1.2,1,3.1,3.1h0.8c0.4,0,0.6-0.2,0.6-0.6
		c-0.1,0-1.2-0.9-3.1-2.8V366.9z M573.6,382.7h0.6v0.3h-0.6V382.7z M574.7,367.2h0.6v0.3h-0.6V367.2z M575.5,370h0.6v0.3h-0.6V370z
		 M576.1,373.4h0.6v0.3h-0.6V373.4z M576.1,387.5v0.8h2c0.9,0,2,0.7,3.4,2l-0.6-4.8C577.7,386.4,576.1,387.1,576.1,387.5z
		 M578.1,366.1c0,0.3,0.3,0.5,0.8,0.8c0-0.2,0.1-0.3,0.3-0.3v1.4c-0.3,0-0.8-0.6-1.7-1.7L578.1,366.1z M577.8,377.9v0.3
		c0.3,0,0.8,0.2,1.4,0.6v-0.3c-0.4-0.4-0.8-0.6-1.1-0.6H577.8z M578.6,381c0,0.2,0.8,1.1,2.5,2.5c0-0.2,0.1-0.3,0.3-0.3v1.1h-0.3
		c-1.9-1.9-3-2.8-3.4-2.8v-0.3C578,381.3,578.3,381.2,578.6,381z M578.6,355.1h2.5c1.1,0,2.6,0.7,4.5,2c2.6-0.4,4.2-0.6,5.1-0.6h0.8
		v0.3c-2.2,0.2-4.6,0.5-7,0.8c0-1.5-2-2.2-5.9-2.2V355.1z M578.6,365.3h0.3v0.6h-0.3V365.3z M579.2,368.1h0.3v0.6h-0.3V368.1z
		 M579.5,369.2h0.3v0.6h-0.3V369.2z M584,366.9h0.3c0,0.5,0.2,0.9,0.6,1.4H584V366.9z M584.2,365h0.3c0,0.6,0.6,1.5,1.7,2.5
		l-0.6,0.3l-1.4-1.7V365z M584.2,375.1h0.3c0.4,0,0.6,0.2,0.6,0.6l-0.6,0.3l-0.3-0.6V375.1z M584.2,380.4v0.3h0.6v-0.3H584.2z
		 M586.2,400.1h1.4v0.3h-1.4V400.1z M587.1,387.5h0.6v0.3h-0.6V387.5z M587.6,373.1h0.6v0.3h-0.6V373.1z M587.9,392.5h0.3
		c0,0.4,0.6,1.1,1.7,2.2c-0.4,0.2-0.6,0.3-0.8,0.3h-1.1v-0.3h1.1c0-0.5-0.4-0.8-1.1-0.8V392.5z M589,372.3l1.4,1.7h-0.6
		c-0.9-0.8-1.4-1.1-1.7-1.1v-0.3C588.4,372.6,588.7,372.5,589,372.3z M588.5,391.4h2v0.3h-0.8l2.8,3.1h-0.8c-0.3,0-1.3-1-3.1-3.1
		V391.4z M589,379.9h0.3c0.4,0,0.6,0.2,0.6,0.6H589V379.9z M589.3,386.4v0.3c0.1,0.4,0.3,0.6,0.6,0.6h1.1v-0.3
		C590.5,386.9,589.9,386.7,589.3,386.4z M590.7,378.8c0.8,0.8,1.1,1.3,1.1,1.4h-0.6c-0.3,0-0.7-0.4-1.1-1.1L590.7,378.8z
		 M591.6,360.5c0,0.3,0.6,0.8,1.7,1.7V361h0.3v2.2c-0.2,0-1.1-0.8-2.5-2.5L591.6,360.5z M591.3,366.1v0.3c0.9,0,2.2,1,3.9,3.1
		l-1.7-3.9C592.3,365.9,591.6,366.1,591.3,366.1z M591.8,377.6l2,2.2h-1.1c0-0.3-0.5-1-1.4-2L591.8,377.6z M592.1,359.1h0.3
		c0.3,0,0.6,0.3,0.8,0.8v0.8c-0.3,0-0.7-0.4-1.1-1.1V359.1z M594.4,352.9c3.7,0.5,5.6,2.2,5.6,5.3v0.3h0.8c0.1-0.8,1.4-2.5,3.7-5.1
		c1.7,0.5,3.2,1.6,4.5,3.4v0.8c-2.4,3.3-5.1,5.5-8.2,6.5v0.6c0.6,1.3,1.6,2,3.1,2c2.8,0,4.2-0.2,4.2-0.6c0.4,0.1,1,0.5,1.7,1.1
		c-1.6,3.8-3.6,5.6-6.2,5.6h-2c-4.5,0-7.2-4.3-8.2-12.9v-3.7C593.5,354.7,593.8,353.5,594.4,352.9z M593.5,363.6h0.3v0.6h-0.3V363.6
		z M595.8,400.4c0,0.3,1,1.3,3.1,3.1h1.1c0-0.3-1-1.3-3.1-3.1H595.8z M596.3,383h0.6c0.3,0,0.9,0.7,2,2v0.6
		C598.6,385.5,597.8,384.7,596.3,383z M598.9,383h0.3v0.6h-0.3V383z M599.7,355.7h0.3v0.6h-0.3V355.7z M600.3,357.7h0.6
		c0,0.4-0.2,0.6-0.6,0.6V357.7z M601.4,364.1h0.6c0.2,0,1,0.8,2.2,2.2h-0.6C603.4,366.4,602.7,365.6,601.4,364.1z M602,373.4
		c0,0.3,1,1.3,3.1,3.1h1.4c0-0.3-1-1.3-3.1-3.1H602z M603.9,363c0,0.4,0.8,1.4,2.5,3.1l-0.6,0.3h-0.8v-0.3h0.6l-2.5-2.8
		C603.3,363.3,603.6,363.2,603.9,363z M604.5,389.2h0.3v0.8h-0.3V389.2z M604.8,372.9h0.6v0.3h-0.6V372.9z"/>
	<path d="M657.1,352c1.6,0,3.3,1.3,5.1,3.9c3.4-0.4,5.9-0.8,7.3-1.1c5.4,1.8,8.2,4.1,8.2,6.8c0,3.4-1.4,6.7-4.2,9.8
		c1.5,1.4,2.2,2.5,2.2,3.4v1.1c0,1.5-3.9,2.7-11.8,3.4c0,0.2-0.2,0.3-0.6,0.3v0.3h4.2c3.2,0,5.7,2.1,7.6,6.2v1.4l-6.2,6.2v0.3
		c4.9,2.5,7.9,5.3,9,8.4v0.6c-0.4,1.1-1.1,1.7-2.2,1.7h-2c-2.8,0-7.1-1.6-12.7-4.8c-4.6,2.6-7.7,3.9-9.3,3.9c-1.7,0-3.4-1.6-5.1-4.8
		v-0.3c0-1.1,1.7-3.3,5.1-6.8c-3.7-4.2-5.6-6.9-5.6-8.2h-0.3v10.4c0,4.9-1.7,7.3-5.1,7.3h-0.6c-0.3,0-2.6-1.7-7-5.1
		c-1.3-0.9-2-1.9-2-3.1c0.8-1.1,1.5-1.7,2.2-1.7v-0.3c-3.8,0-6.5-1.9-8.2-5.6v-2c0.1-0.4,0.3-0.6,0.6-0.6l-0.3,1.4v0.8
		c0.7,1.1,1.5,1.7,2.5,1.7l-0.3,0.6c0.2,0,1.1,0.8,2.5,2.5l1.7,0.3l-2.8-3.1l1.1-0.3l-0.3,0.6l3.1,2.8h0.8V390l-2.8-3.1h0.6
		c2.1,1.7,3.1,2.9,3.1,3.4l0.6-0.3v0.6l-3.7,2.8c0,0.8,2.4,3.1,7.3,6.8v-0.3c-0.2,0-1-0.8-2.2-2.2h0.6c0.1,0,1.2,1,3.4,3.1h0.6
		c0.4,0,0.6-0.2,0.6-0.6c-0.3,0-1.2-0.9-2.8-2.8V397h0.3l3.4,3.1h0.3c0.4,0,0.6-0.2,0.6-0.6c-0.3,0-1.3-1-3.1-3.1h0.6l3.1,2.8
		l0.6-1.1c-0.3,0-1.3-1-3.1-3.1v-1.1h0.3c0,0.8,1,2,3.1,3.7v-1.1c-2.1-2.1-3.1-3.3-3.1-3.7v-1.1h0.3c0,1,0.9,2.2,2.8,3.7l0.3-1.4
		c-0.3,0-1.3-1-3.1-3.1v-0.6l3.1,2.8V392l-3.1-3.7v-0.6c0.2,0,1.2,1,3.1,3.1v-1.4l-3.1-3.4v-0.6l3.1,2.8v-1.4
		c-2.1-2.2-3.1-3.3-3.1-3.4V383l3.1,2.8v-1.1c-2.1-2.2-3.1-3.3-3.1-3.4v-0.6l2.8,2.5v-1.4c0-0.3-0.9-1.2-2.8-2.8v0.8h-0.3v-4.5h0.3
		c0,0.6,0.9,1.6,2.8,3.1v-1.4l-3.1-3.4v-0.6c3.7,3.5,6.1,5.4,7,5.6v-0.3c-0.2,0-1.1-0.8-2.5-2.5h0.6c0.3,0,1.6,1.1,3.9,3.4
		c0.3,0.2,0.7,0.3,1.1,0.3h0.3l-2.8-3.1h0.6c0.1,0,1.2,1,3.4,3.1h1.1l-2.8-3.1h0.6c2.2,2.2,3.7,3.4,4.8,3.4c0.4,0,0.6,0.2,0.6,0.6
		c-4.9,0.6-8.6,1.4-11.2,2.5v0.3c0.3,1.5,0.8,2.2,1.7,2.2l-0.3,0.6c2.6,3.2,4.3,4.9,5.1,5.1v0.3c-3.8,3.8-5.6,6.3-5.6,7.6
		c2,2.8,3.6,4.2,4.8,4.2v-0.3c-2.2-1.9-3.5-2.8-3.9-2.8v-0.3h1.1c2.1,2.1,3.3,3.1,3.7,3.1c0.4-0.2,0.7-0.3,0.8-0.3l-3.1-3.4
		c0.2,0,0.5-0.1,0.8-0.3c0,0.5,1,1.6,3.1,3.4c0.4-0.2,0.7-0.3,0.8-0.3v-0.3l-2.8-3.1v-0.3c2.1,2.1,3.3,3.1,3.7,3.1
		c0.4-0.2,0.7-0.3,0.8-0.3c-1.7-2.1-2.9-3.1-3.4-3.1v-0.3c0.2,0,0.5-0.1,0.8-0.3c0,0.3,1,1.3,3.1,3.1h0.3c0.4,0,0.6-0.2,0.6-0.6
		c-0.3,0-1.2-0.9-2.8-2.8v-0.6c2.1,2.1,3.3,3.1,3.7,3.1c0.4-0.2,0.7-0.3,0.8-0.3l-3.1-3.4v-0.3h0.3c2.1,2.2,3.9,3.5,5.3,3.9v-0.3
		c-0.3,0-0.9-0.7-2-2h0.3c0.4,0,1.8,1.2,4.2,3.7c1.4,0.8,2.2,1.1,2.5,1.1l-2.5-2.8h0.3c0.3,0,1.7,1.2,4.2,3.7l1.4,0.3
		c-1.5-1.9-2.5-2.8-3.1-2.8v-0.3h0.6c0.3,0,1.6,1.1,3.9,3.4c0.1,0,0.7,0.1,1.7,0.3c-1.5-2.1-2.9-3.1-4.2-3.1h-0.3v-0.3h2.5
		c0,0.5,1,1.6,3.1,3.4c0.3-0.2,0.7-0.3,1.1-0.3l-3.4-3.4l0.6-0.3c0,0.3,1,1.3,3.1,3.1h0.3v-1.1c0-0.3-0.9-1.2-2.8-2.8
		c0,0.2-0.1,0.3-0.3,0.3c0-1.9-2.2-3.9-6.5-5.9v-0.3h0.6v-0.3l-3.1-3.4l0.6-0.3c0,0.3,1,1.3,3.1,3.1c0.4-0.2,0.7-0.3,0.8-0.3
		l-3.1-3.7l0.6-0.3c1.8,2.2,2.8,3.4,3.1,3.4c0.4-0.5,0.6-0.8,0.6-0.8l-3.1-3.4l0.6-0.3c0,0.3,1,1.3,3.1,3.1c0.3,0,0.6-0.3,0.8-0.8
		c-1.9-1.9-3-2.8-3.4-2.8c0.1-0.4,0.3-0.6,0.6-0.6l3.4,3.1l0.6-0.8c-0.3,0-1.3-1-3.1-3.1c0.1-0.4,0.3-0.6,0.6-0.6
		c0,0.5,1,1.6,3.1,3.4l0.6-0.8c0-0.3-1-1.3-3.1-3.1c0.2-0.3,0.3-0.7,0.3-1.1h0.3c0,0.8,0.9,1.9,2.8,3.4c-0.8-2.1-1.9-3.5-3.4-4.2
		c-0.7-1.3-2.3-2-4.8-2h-4.2c0-0.3-1-1.6-3.1-3.9h0.3c0.1,0,1.2,1,3.4,3.1c0.4,0,0.6-0.2,0.6-0.6l-2.8-3.1v-0.3h0.3l3.4,3.1h1.4
		c-1.6-2.1-2.9-3.1-3.9-3.1v-0.3h1.7c0,0.3,1,1.3,3.1,3.1h1.1l-2.8-3.1l0.6-0.3h0.8v0.3h-0.6c0,0.3,0.9,1.2,2.8,2.8h1.4l-2.8-3.1
		v-0.3h0.3l3.4,3.1h1.1c-1.7-2.1-2.9-3.1-3.4-3.1v-0.3c0.4,0,0.8-0.1,1.1-0.3l3.1,3.4c0.4-0.2,0.7-0.3,0.8-0.3v-0.3l-2.8-3.1v-0.3
		h0.3l3.4,3.1c0.4,0,0.6-0.2,0.6-0.6l-3.1-3.4v-0.3h0.3l3.1,2.8v-0.3c0-0.9-0.9-1.9-2.8-3.1c0,0.2-0.1,0.3-0.3,0.3
		c0-0.4-0.1-0.8-0.3-1.1h0.6l-2.8-3.1c0.1-0.4,0.3-0.6,0.6-0.6c0,0.5,1,1.6,3.1,3.4l0.6-0.8c-0.3,0-1.3-1-3.1-3.1v-0.3h0.3l3.4,3.1
		c0-0.3,0.2-0.7,0.6-1.1c-1.9-1.9-3-2.8-3.4-2.8c0.2-0.4,0.3-0.7,0.3-0.8l3.4,3.1h0.3v-1.1c-1.7-1.7-2.7-2.5-3.1-2.5
		c0.2-0.4,0.3-0.7,0.3-0.8l3.4,3.1l0.3-1.4c-0.3,0-1.3-1-3.1-3.1l0.6-0.3c0,0.3,0.9,1.2,2.8,2.8l0.3-1.4c-1.8-1.3-2.9-2.3-3.1-2.8
		v-2.8c0-0.5-1.2-1.1-3.7-2l-8.4,0.8c-1.8-2.4-3.6-3.7-5.3-3.7h-0.6v-0.3L657.1,352z M656.2,352.9h1.4c1.3,0,2,2.5,2,7.6v9.3l-0.3,2
		c2.8-0.4,6.2-0.6,10.1-0.6h2.2v0.8c0,1.5-3.8,2.5-11.2,3.1c-1.5,0.9-2.2,1.9-2.2,3.1c-0.6,0.4-1.2,0.6-1.7,0.6
		c-0.6-1.1-0.8-2-0.8-2.8c-2.6,0.2-4.1,0.3-4.8,0.3c-3.9-0.2-6.2-0.9-6.8-2.2v-0.3h1.7c-0.6-4.1-1.2-6.2-1.7-6.2
		c-1.4,0.8-2.4,1.1-2.8,1.1c0.4,8.1,0.6,15.1,0.6,20.8c0,4.9-0.9,7.3-2.8,7.3c-0.7,0.4-1.4,0.6-2.2,0.6c-1.7-2.1-3.3-3.3-4.8-3.7
		v-0.6c2.6-1,3.9-2.2,3.9-3.7v-4.2c-4,1.3-6.4,2-7.3,2c-1.9-0.3-2.8-1.1-2.8-2.5v-0.6c0.7-1.4,3.7-3,9-4.8c0-0.2,0.4-0.5,1.1-0.8
		c-0.2-2.2-0.3-3.8-0.3-4.8v-3.4c-1,0-2.6,0.1-4.8,0.3c-0.9,0-2.2-0.3-3.9-0.8v-0.8c0-1,2.9-2.1,8.7-3.4v-2.8c0-2.6,0.3-3.9,0.8-3.9
		c2.5,0,3.9,2,4.2,5.9h3.7c-0.2-1.9-0.3-3.3-0.3-4.2l0.3-2h1.4l0.6,0.3c0.9-2.8,2-4.2,3.4-4.2c1.3,0.6,2.6,1.7,3.7,3.1v0.6
		c-1.1,1.5-2.9,2.2-5.3,2.2l0.8,4.2l0.6-0.3h3.9c0.3,0,0.6,0.3,0.8,0.8v0.3c0,0.7-1.8,1.5-5.3,2.2v0.3c0,0.8-0.2,2.5-0.6,5.1l7-0.8
		c-0.2-3.1-0.3-5.4-0.3-7v-8.2C655.1,354.3,655.5,352.9,656.2,352.9z M634.3,379c0,0.2-2.2,1.1-6.8,2.8c0,0.2-0.6,0.7-1.7,1.4V383
		C626.5,381.8,629.3,380.5,634.3,379z M636.3,357.9c0.3,0.2,0.7,0.3,1.1,0.3v0.3c-0.9,0-1.4,0.2-1.4,0.6c-0.4,0.8-0.6,2.1-0.6,3.7
		v2.5c-5.8,1.3-8.7,2.5-8.7,3.7v0.6c2.1,3,4,4.5,5.9,4.5l-2.8-3.1h0.3l3.4,3.1h1.4l-2.8-3.1h0.3c2.1,1.5,3.1,2.9,3.1,4.2l0.3,3.4
		c-0.3,0-0.7,0.2-1.1,0.6h-0.3l0.8-1.1v-3.1h-0.3c-4.5,0-7.4-1.8-8.7-5.3v-0.3c0-1.7,2.9-3.1,8.7-4.2v-0.3
		C635,360.2,635.4,357.9,636.3,357.9z M629,370.6h0.8v0.3H629V370.6z M632.1,386.6h0.6v0.3h-0.6V386.6z M632.9,370.6h2
		c0,0.2,0.1,0.3,0.3,0.3c0-0.2,0.1-0.3,0.3-0.3v2.8h-0.3c0-1.7-0.7-2.5-2-2.5h-0.3V370.6z M634.6,385.8h1.1v3.7h-0.3
		c0-0.4-0.8-1.3-2.2-2.8v-0.3h0.6c0.1,0,0.7,0.5,1.7,1.4v-1.1c0-0.4-0.3-0.6-0.8-0.6V385.8z M648.9,354.3c-1.9,2-2.8,3.3-2.8,3.9
		h-1.4c-0.6,0.1-0.8,0.9-0.8,2.2v0.6l0.3,3.4h-3.1v-0.3h0.6c-0.6-0.7-0.8-1.3-0.8-1.7l2,1.7h0.3c-0.3-1-1.5-2.3-3.4-3.9
		c0-0.5-0.8-1-2.2-1.4v-0.3h0.6c2.8,1.2,4.5,2.8,5.3,4.8h0.3l-0.3-2v-0.8c0-1.9,0.8-2.8,2.2-2.8c0,0.2,0.1,0.3,0.3,0.3
		C646.7,355.5,647.7,354.3,648.9,354.3z M638,397.3h0.6v0.3H638V397.3z M641.9,368.6h0.3c2.2,1.8,3.4,3.3,3.4,4.5l-1.7,0.6
		c0-0.3-0.7-0.9-2-2c0,0.2-0.1,0.3-0.3,0.3v-2.8h0.3c0,1.3,0.9,2.6,2.8,3.9c0-0.4,0.1-0.8,0.3-1.1c-0.3,0-1.3-1-3.1-3.1V368.6z
		 M642.2,376.8v1.1c0,0.3,0.9,1.2,2.8,2.8v-1.1C645,379.3,644.1,378.4,642.2,376.8z M644.4,368.1l0.3,1.4c-0.3,0-0.7-0.5-1.4-1.4
		H644.4z M643.6,373.7h0.3v0.6h-0.3V373.7z M644.7,370h0.3v0.6h-0.3V370z M645.6,377.6v0.3c0.2,1.9,0.3,3.4,0.3,4.5v0.3
		c3.8-1.3,6.5-2,8.2-2v-0.3C650.9,380.4,648.1,379.5,645.6,377.6z M664.4,380.4h2c2.6,0,4.2,0.8,4.8,2.2v0.8
		c-4.8,4.9-7.5,7.3-8.2,7.3v0.3c0,0.2,2.8,1.9,8.4,5.1c1.5,1.2,2.2,2.3,2.2,3.4c-0.2,0.6-0.8,0.8-1.7,0.8h-1.1
		c-3.3,0-7.6-1.7-12.9-5.1c-4.9,2.8-8.1,4.2-9.6,4.2h-0.6c-0.2-0.7-0.3-1-0.3-1.1c0-0.7,2-3.1,5.9-7c-3-2.6-4.5-4.1-4.5-4.5
		c0.5-0.4,0.9-0.6,1.4-0.6v-0.6c-2.4-0.1-3.7-1.1-3.7-2.8C652.1,381.3,658,380.4,664.4,380.4z M648.1,376.2h0.8v0.3h-0.8V376.2z
		 M655.7,352.6v0.3c-0.6,0.9-0.8,2.3-0.8,4.2v8.2l-1.1-1.1h-4.5v-0.3h1.7l-2.5-2.8v-0.3h0.3l3.4,3.1h1.4c-1.7-2.1-3.1-3.1-4.2-3.1
		v-0.3h1.7c0,0.3,1,1.3,3.1,3.1h0.6v-0.8c-1.3-1.7-2.2-2.5-2.8-2.5v-0.3c0.2,0,0.5-0.1,0.8-0.3c0,0.3,0.7,0.9,2,2v-1.4l-1.1-1.4h0.3
		l0.8,0.6v-1.4l-2.8-2.5c-0.8-0.8-1.8-1.1-2.8-1.1V354h1.4c0.8,0.4,2.1,1.2,3.9,2.5C654.4,353.9,654.9,352.6,655.7,352.6z
		 M648.4,385.8h0.6v0.3h-0.6V385.8z M648.7,361.9h0.3v0.6h-0.3V361.9z M648.7,372.3c0.4,0.2,0.7,0.3,0.8,0.3v0.3h-0.8V372.3z
		 M648.9,363.3h0.3v0.6h-0.3V363.3z M648.9,370h0.3c0.3,1.5,1.1,2.2,2.5,2.2v0.3h-1.7c-0.8-0.8-1.1-1.3-1.1-1.4V370z M652,367.2h0.8
		l2.2,2.5v2.2c-1.7,0.2-2.7,0.3-3.1,0.3l-2.8-3.1v-0.6c0.1,0,1.2,1,3.4,3.1l0.8-1.1c-2-1.6-3-2.5-3.1-2.8l1.1-0.3l-0.3,0.6l2.8,2.5
		h0.8V370c-1.3-1.7-2.2-2.5-2.8-2.5V367.2z M649.5,367.8h0.6v0.3h-0.6V367.8z M649.5,399.6h0.6v0.3h-0.6V399.6z M651.2,385.5v0.6
		c0.8,0,2.7,0.9,5.6,2.8c2.9-1.4,5.3-3.2,7.3-5.3v-0.3C656,384.8,651.7,385.5,651.2,385.5z M652.3,385.5h0.8v0.3h-0.8V385.5z
		 M653.4,376.2h1.7c0,0.4,0.2,0.6,0.6,0.6v1.1c-0.9-0.9-1.7-1.4-2.2-1.4V376.2z M653.7,366.4h0.6c0.4,0,0.6,0.2,0.6,0.6v0.6
		C654.6,367.5,654.2,367.1,653.7,366.4z M654.3,385.2h0.6l-0.3,0.6c0.2,0,1.1,0.8,2.5,2.5v0.3c-0.8-0.2-1.9-1.2-3.4-3.1L654.3,385.2
		z M655.7,384.9h0.6c0.2,0,1.1,0.8,2.5,2.5l-0.6,0.3c-0.2,0-1.1-0.8-2.5-2.5V384.9z M656.8,379h0.6c0.7,0.8,1.5,1.1,2.5,1.1v0.3h-2
		L656.8,379z M657.4,384.7h0.8c0.3,0,0.9,0.7,2,2h-0.6c-1.1-1.1-1.9-1.7-2.2-1.7V384.7z M658.5,377.9c0.2,0,1,0.8,2.2,2.2h-0.6
		c-0.3,0-0.8-0.6-1.7-1.7V377.9z M658.8,376.8h0.3v0.8h-0.3V376.8z M658.8,384.4h1.7l0.8,1.1c0,0.4-0.2,0.6-0.6,0.6
		c0-0.9-0.7-1.4-2-1.4V384.4z M659.3,354.9c0.3,0,0.8,0.6,1.7,1.7v0.6c-0.3,0-0.8-0.6-1.7-1.7V354.9z M659.6,356.5h0.3v1.1h-0.3
		V356.5z M659.9,357.7c1.9,1.9,3.7,3.3,5.6,4.2v-0.3c-0.2,0-1.1-0.8-2.5-2.5h0.6c2.2,2.2,3.6,3.4,4.2,3.4v0.6H663v-1.4
		c-2.1-2.2-3.1-3.3-3.1-3.4V357.7z M659.9,360.2c0.3,0,1.2,0.9,2.8,2.8l-0.6,0.3h-0.3c0-0.6-0.6-1.2-1.7-2v1.1
		c0,0.6,0.4,0.8,1.1,0.8c-0.2,0.4-0.3,0.6-0.3,0.8l-0.8-0.6v1.7c0.4,0,1.3,0.8,2.8,2.2c0.4,0,1.1,0.8,2.2,2.2l1.4,0.3
		c-2.1-2.2-3.1-3.3-3.1-3.4h1.1c0,0.4,0.9,1.5,2.8,3.4c0.3-0.2,0.7-0.3,1.1-0.3l-2.8-3.1v-0.3h1.4v0.3h-0.6c1.4,1.9,2.9,3.1,4.5,3.7
		c0.4,0,0.6,0.2,0.6,0.6h-7.6v-0.3h1.1c0-0.3-0.5-0.6-1.4-1.1v1.1l0.3,0.6h-2v-0.3h0.6c0-0.2-0.8-1.1-2.5-2.5v1.4l1.1,1.4h-0.6
		c-0.3,0-0.5-0.3-0.8-0.8V360.2z M659.9,371.2h0.6v0.3h-0.6V371.2z M660.2,366.1v1.1c0,0.3,0.9,1.2,2.8,2.8v-1.1
		C663,368.7,662.1,367.7,660.2,366.1z M660.5,384.1h0.6v0.3h-0.6V384.1z M661,364.1h0.3v0.6H661V364.1z M668.9,355.7h0.3
		c2.8,0.6,4.2,1.2,4.2,2v1.1c0,3.1-1.4,6-4.2,8.7c-0.3,0-0.6-0.5-1.1-1.4c-1.4,0-3.1,0.2-5.1,0.6c-0.9-1.1-1.4-2.2-1.4-3.1
		c1-0.2,1.9-0.3,2.5-0.3h3.9c0.2-1.9,0.3-3.3,0.3-4.2v-0.3c-2.3,0.2-3.5,0.3-3.7,0.3c-1.6,0-2.7-0.6-3.4-1.7v-0.6
		c2.4-0.6,4.8-0.8,7.3-0.8c0,0.2,0.1,0.3,0.3,0.3V355.7z M661.9,383.8h0.3c0.4,0,0.6,0.2,0.6,0.6c0,0.4-0.2,0.6-0.6,0.6
		C662,384.3,661.9,383.9,661.9,383.8z M663.6,361.6v1.1h1.7v-0.3C664.8,362.4,664.3,362.2,663.6,361.6z M664.1,390.6l1.4,1.7h-0.3
		c-0.8-0.3-1.3-0.7-1.7-1.4L664.1,390.6z M666.9,359.1h0.6v0.3h-0.8c0,0.3,0.4,0.7,1.1,1.1v-0.8h0.3v2c-0.2,0-1-0.8-2.2-2.2
		L666.9,359.1z M666.9,400.1h0.6v0.3h-0.6V400.1z M669.2,370.3v0.3h0.8v-0.3H669.2z M673.4,360.8h0.3v0.6h-0.3V360.8z M674,358.2
		v1.4c0,0.3,0.9,1.2,2.8,2.8V361C676.8,360.8,675.8,359.8,674,358.2z"/>
	<path d="M702.3,354.1c2.7,0,5.2,1.7,7.5,5.2c0.6,1.1,0.8,2.2,0.8,3.1v0.1c0,2.2-1,5.3-3.1,9.3c-0.2,0.1-0.4,0.1-0.6,0.1
		c-3-0.7-4.5-3-4.5-6.8c-0.1-0.1-0.2-1.1-0.4-3.1h-0.1c-2.5,3.3-4.1,7.7-5.1,13.2c-0.5,3.1-0.7,6.8-0.7,11.1c0,1.7,0.2,3.9,0.6,6.6
		h0.1c2.1-1.5,3.9-3.4,5.5-5.8c1.8-3,2.7-5.2,2.7-6.3c0.2-1.5,0.5-2.2,1-2.2c1.3,0,3.4,1.8,6.2,5.3c1,1.6,1.5,3.1,1.5,4.4
		c0,3.5-3.5,7.2-10.5,11.2c-4,1.9-7.1,2.8-9.1,2.8c-3,0-5.7-2.1-8-6.3c-0.8-2.5-1.1-6-1.1-10.3v-2.8c0-9.6,2-17.3,5.9-23.1
		C693.9,356.1,697.8,354.1,702.3,354.1z M701.1,354.7v0.1h0.6v0.1h-0.8c-0.3-0.1-0.5-0.1-0.6-0.1h-0.1v0.1h0.4v0.1h-0.4l-0.6-0.1
		h-0.1v0.1h0.4v0.1h-0.4c-0.2-0.1-0.3-0.1-0.4-0.1h-0.1v0.1h0.4v0.1h-0.8v-0.1c-0.7,0.3-1.1,0.4-1.3,0.4v0.3h0.3v0.1
		c-0.2,0-0.4,0-0.6,0.1l-0.1-0.3c-0.7,0.4-1.1,0.6-1.3,0.6l0.3,0.4c-0.1,0-0.2,0-0.4,0.1l-0.1-0.3c-0.3,0.1-0.7,0.4-1.1,0.8
		c0.2,0,0.3,0.1,0.3,0.3c-0.1,0-0.2,0-0.4,0.1c0-0.2-0.1-0.3-0.3-0.3l-0.7,0.8l0.1,0.3c-0.2,0-0.3,0.1-0.3,0.3l-0.3-0.1
		c-0.2,0-0.4,0.3-0.8,1h0.3c-0.2,0.2-0.3,0.4-0.3,0.6h-0.1v-0.3c-0.2,0-0.4,0.3-0.8,1v0.1h0.3c-0.2,0.2-0.3,0.4-0.3,0.6h-0.1v-0.3
		c-0.5,0.4-0.7,0.8-0.7,1.3h0.1c-0.1,0.2-0.1,0.3-0.1,0.4l-0.3-0.1l-0.6,1.1c0.1,0.2,0.1,0.3,0.1,0.4l-0.3,0.1c0-0.1,0-0.1-0.1-0.1
		c0,0.1-0.1,0.5-0.4,1.3h0.1c0,0.4-0.2,0.6-0.4,0.6l0.1,0.3c-0.2,0-0.4,0.3-0.6,0.8l0.1,0.3c-0.4,0.5-0.6,1.2-0.6,2.1v0.1
		c-0.2,0-0.4,0.4-0.6,1.3l0.1,0.3v0.1c-0.2,0-0.6,2.2-1.1,6.8v1.3h-0.1c0,0.1,0,0.1,0.1,0.1l-0.1,0.6c0,0.9,0,2.3-0.1,4.4
		c0,6.8,0.8,11.1,2.4,12.9c1.6,1.9,2.9,3.1,4.1,3.4l-2.8-3h0.1c0.3,0,1.5,1.1,3.8,3.4c0.4,0,0.9,0,1.5,0.1l0.1-0.3
		c-0.1,0-1.1-1-3.1-3.1h0.4l3.4,3.2c0.9-0.1,1.4-0.2,1.4-0.4c-0.1,0-1.2-1.1-3.2-3.2h0.4c0,0,1.2,1.1,3.4,3.2
		c0.8-0.2,1.3-0.4,1.3-0.6c-0.1,0-1.2-1.1-3.2-3.2c0,0,0.2,0,0.6-0.1l3.2,3.4c0.5-0.3,0.9-0.4,1.1-0.4v-0.1l-3.1-3.2v-0.1h0.3
		c0,0,1.2,1.1,3.4,3.2c0.5-0.3,0.8-0.4,1.1-0.4v-0.1l-3.2-3.4h0.4c0.1,0,1.2,1.1,3.2,3.2c0.7-0.4,1.1-0.6,1.3-0.6v-0.1l-3.2-3.2
		v-0.1h0.3c0.6,0.6,1.8,1.7,3.5,3.2c0.7-0.5,1-0.8,1-0.8c-2.2-2-3.2-3-3.2-3.1v-0.1h0.3c0.4,0.2,0.6,0.4,0.6,0.7l0.3-0.1
		c0,0.1,0.8,1,2.5,2.5c0.7-0.4,1.1-0.6,1.1-0.8c-0.1,0-1.2-1.1-3.2-3.2c0-0.2,0.1-0.3,0.3-0.3c0,0,1.1,1.2,3.2,3.4
		c0.5-0.4,0.9-0.6,1-0.6v-0.1l-3.2-3.4c0-0.2,0.1-0.3,0.3-0.3c0,0.1,1.1,1.3,3.4,3.4l0.8-0.8l-3.2-3.4v-0.1h0.3l3.4,3.2l0.8-1
		c-0.1,0-1.3-1.1-3.4-3.4l0.3-0.1c0,0,1.2,1.1,3.4,3.2c0.2,0,0.4-0.3,0.8-1c-0.1,0-1.3-1.1-3.4-3.4l0.3-0.1l3.4,3.2
		c0.4-0.6,0.6-1,0.6-1.3c-0.1,0-1.2-1.1-3.2-3.2v-0.1c0-0.2,0.1-0.3,0.3-0.3c0,0.1,1.1,1.2,3.2,3.2c0.2-0.4,0.3-0.7,0.3-1.1V389
		l-3.2-3.4v-0.4l3.4,3.2v-0.1c0-1.4-0.7-2.6-2.1-3.7c0-0.1-0.7-0.8-2-2c0-0.1-0.3-0.5-0.8-1.3v-0.1l3.8,3.7v-0.1
		c-2.3-3-4.1-4.8-5.5-5.3v0.1c0.1,0,0.4,0.2,0.7,0.7h-0.1c-0.5-0.5-0.9-0.7-1.3-0.7c0,2.5-1.8,6.3-5.3,11.2c-0.6,0.5-1.2,1-1.8,1.7
		c0-0.1,0-0.1-0.1-0.1l-0.3,0.4c0.1,0,0.1,0,0.1,0.1l-0.6,0.3c0-0.1,0-0.1-0.1-0.1c0,0.2-0.3,0.4-0.8,0.6v0.1h0.3v0.1
		c-0.2,0-0.4,0.1-0.7,0.3c0-0.2-1.2-1.5-3.7-3.9v-0.4c0,0,1.2,1.1,3.4,3.2v-0.1c0-1.4-0.5-2.5-1.5-3.1l-2.1-2.2v-0.4l3.2,3.1v-1
		c0-0.8-0.6-1.6-1.8-2.5c-1.1-1.1-1.7-1.8-1.7-2.2c0,0,1.2,1.1,3.4,3.2V386l-3.4-3.5V382l3.4,3.2v-1.5l-3.4-3.5v-0.4l3.4,3.2
		l0.1-0.7v-0.8l-3.4-3.5v-0.4l3.4,3.2c0-0.2,0-0.7,0.1-1.7c-0.1,0-1.3-1.1-3.4-3.4v-0.4l3.4,3.2l0.1-0.7v-0.8l-3.4-3.5
		c0-0.2,0.1-0.3,0.3-0.3c0,0.1,1.1,1.2,3.2,3.2l0.1-1.4v-0.1l-3.2-3.4v-0.6c0,0,1.2,1.1,3.4,3.2c0.1-0.1,0.2-0.6,0.3-1.4
		c-0.1,0-1.3-1.1-3.4-3.4c0-0.2,0.1-0.3,0.3-0.3c0,0.1,1.1,1.2,3.2,3.2c0.2-0.7,0.3-1.2,0.3-1.5c-0.1,0-1.2-1.1-3.2-3.2v-0.4
		l3.5,3.4c0-0.1,0.1-0.6,0.3-1.5c-0.1,0-1.2-1.1-3.2-3.2v-0.4l3.5,3.4l0.4-1.4L695,364c0.1-0.2,0.1-0.3,0.1-0.4c0,0,1.2,1.1,3.4,3.2
		h0.1c0.3-0.7,0.4-1.1,0.4-1.3c-0.1,0-1.2-1.1-3.2-3.2v-0.1c0-0.2,0.1-0.3,0.3-0.3c0,0.1,1.1,1.2,3.2,3.2h0.1c0.3-0.6,0.4-1,0.4-1.1
		c-0.1,0-1.2-1.1-3.2-3.2c0-0.2,0.1-0.3,0.3-0.3c0,0.1,1.1,1.2,3.2,3.2h0.1c0-0.1,0.2-0.5,0.6-1.1c-0.1,0-1.2-1.1-3.2-3.2
		c0-0.2,0.1-0.3,0.3-0.3c0,0.1,1.1,1.2,3.2,3.2l0.8-1c-0.1,0-1.3-1.1-3.4-3.4l0.3-0.1c2.2,2.1,3.4,3.2,3.4,3.4c0.4,2.4,0.7,4.7,1,7
		c1.3,2.2,2.6,3.2,3.8,3.2l0.1-0.3c-0.1,0-1.3-1.1-3.4-3.4c0-0.2,0.1-0.3,0.3-0.3c0,0.1,1.1,1.2,3.2,3.2h0.1c0-0.1,0.1-0.5,0.4-1.3
		c-0.1,0-1.3-1.1-3.4-3.4c0-0.2,0.1-0.3,0.3-0.3c0,0.1,1.1,1.3,3.4,3.4l0.4-1.4c-0.1,0-1.3-1.1-3.4-3.4v-0.3h0.1l3.5,3.4l0.4-1.4
		l-3.5-3.4c0.1-0.2,0.1-0.3,0.1-0.4l3.5,3.4h0.1c0-0.2,0.1-0.7,0.3-1.4c-1.8-1.7-3-2.9-3.5-3.7c0-0.2,0.1-0.3,0.3-0.3
		c0,0.1,1.1,1.3,3.4,3.4v-1.5c-2.3-2.3-3.5-3.6-3.5-3.9v-0.1c0,0,1.2,1.1,3.4,3.2c-0.6-2.1-1.8-3.7-3.5-4.9c0-0.1-0.5-0.4-1.4-1
		l-0.3,0.1h-0.1l0.1-0.3l-0.3,0.1h-0.1l0.1-0.3l-0.3,0.1c-1-0.3-1.5-0.4-1.5-0.6c-0.1,0-0.1,0-0.1,0.1l-1-0.1H701.1z M702.2,355.2
		h0.6c1.6,0,2.8,1.1,3.5,3.2v0.6c0,1.5-0.8,4.2-2.5,8.3h-0.3v-0.1c-0.5-5.3-1-8-1.5-8c-1-1.2-1.9-1.8-3-1.8h-0.1
		c-4.7,4.6-7,13.2-7,25.9c0.4,8,1.5,12,3.4,12c3.6-1.3,6.9-4.9,9.7-10.8c0.8-1.9,1.3-3.4,1.3-4.2h0.1c2.1,1.5,3.1,3.1,3.1,4.9v0.6
		c0,2.4-3,5.5-9,9.4c-4.2,2.2-7.7,3.2-10.3,3.2c-1.9,0-3.2-1.5-3.8-4.4c-0.4-2.8-0.6-5.8-0.6-9v-0.4c0-11.6,2.5-20,7.6-25.5
		C696.4,356.5,699.3,355.2,702.2,355.2z M693.5,358.2h0.3v0.1h-0.3V358.2z M693.6,393.1c1,1,1.7,1.5,2,1.5v0.1c-0.1,0-0.2,0-0.4,0.1
		C694.6,394.9,694.1,394.3,693.6,393.1z M695,357.1h0.3v0.1H695V357.1z M695.6,394.5h0.3v0.1h-0.3V394.5z M695.7,356.6h0.3v0.1h-0.3
		V356.6z M695.9,394.3h0.3v0.1h-0.3V394.3z M696,356.5h0.3v0.1H696V356.5z M696.1,394.2h0.3v0.1h-0.3V394.2z M697.4,355.8h0.3v0.1
		h-0.3V355.8z M697.7,355.7h0.3v0.1h-0.3V355.7z M698,355.5h0.4v0.1H698V355.5z M701.9,359.7l0.1,0.3v0.3h-0.4V360
		C701.7,359.8,701.8,359.7,701.9,359.7z"/>
	<path d="M725.2,356.4h0.4c1.4,0,3.2,1.9,5.3,5.6v0.1h0.7c0.5,0,0.9,0,1-0.1c6.3,0,10.6,1.4,12.8,4.1c2.2,1.9,3.2,4.2,3.2,6.9v0.3
		c0,4.6-2.7,10.7-8.2,18.3c-5.1,5.7-10.1,8.6-14.9,8.6c-3,0-5.4-1.6-7.2-4.9c-0.5-0.9-0.7-2.1-0.7-3.5c0-3.5,0.6-10.1,1.8-19.7h-0.4
		c-1.5,0-3.2-1.2-4.9-3.7c-0.2-0.4-0.3-0.7-0.3-1.1v-0.3c0-1.2,2-2.2,5.9-2.8c0.9-0.2,1.4-1.1,1.4-2.7
		C721.8,360,723.1,358.3,725.2,356.4z M725.2,357.2c0.1,0,0.1,0,0.1,0.1c-0.2,0-0.4,0.1-0.7,0.4c0-0.1,0-0.1-0.1-0.1l-0.3,0.4
		c0.1,0,0.1,0,0.1,0.1c-0.8,0.5-1.1,0.9-1.1,1c0.1,0,0.1,0,0.1,0.1c-0.2,0.1-0.3,0.1-0.4,0.1l0.1,0.3c-0.3,0.4-0.5,0.6-0.7,0.6
		l0.1,0.3h-0.3l0.1,0.3h-0.3c0,0.1,0,0.1,0.1,0.1l-1.1,3.1c-0.2,0.1-0.3,0.1-0.4,0.1v0.1h0.3v0.1c-0.4,0-1.4,0.2-2.8,0.7l-0.3-0.1
		h-0.1v0.1h0.3v0.1h-0.4l-0.3-0.1v0.1c0.1,0,0.1,0,0.1,0.1H717l-0.3-0.1v0.1c0.1,0,0.1,0,0.1,0.1l-0.7,0.1l-0.3-0.1
		c-0.6,0.2-0.8,0.4-0.8,0.6c0.1,0,0.1,0,0.1,0.1c-0.4,0-0.7,0.3-0.8,1c0.5,1.2,1.5,2.4,3,3.4c0.5,0.4,1.3,0.6,2.4,0.8v-0.1
		c-0.1,0-1.1-1-3.1-3.1h0.6c0.1,0,1.1,1,3.1,3.1c-1.3,9.2-2,16.3-2,21.2v0.1c0,2.1,1.4,4.1,4.2,5.9l0.8,0.4V399
		c-0.1,0-1-0.9-2.7-2.7h0.6c2.1,2.1,3.2,3.1,3.4,3.1c0.5,0.1,1,0.1,1.4,0.1h0.3l-3.2-3.2l0.3-0.1l3.5,3.2c0.9,0,1.4-0.2,1.4-0.4
		c-0.1,0-1.1-1-3.1-3.1v-0.1h0.3c0,0,1.2,1.1,3.4,3.2c0.8-0.2,1.3-0.4,1.3-0.6c-0.1,0-1.1-1-3.1-3.1v-0.1h0.3l3.4,3.2
		c0.8-0.3,1.1-0.6,1.1-0.7c-0.1,0-1.2-1.1-3.2-3.2c0.1,0,0.2,0,0.4-0.1c2,2.2,3.1,3.2,3.4,3.2c0.5-0.3,0.8-0.4,1-0.4V397l-3.2-3.4
		l0.3-0.1h0.1c0.1,0,1.2,1.1,3.2,3.2c0.7-0.3,1-0.6,1-0.7l-3.2-3.4l0.3-0.1l3.4,3.2c0.4-0.2,0.8-0.4,1-0.8c-0.1,0-1.2-1.1-3.2-3.2
		c0-0.2,0.1-0.3,0.3-0.3c0,0.1,1.1,1.3,3.4,3.4c0-0.1,0.3-0.4,0.8-0.8l-3.4-3.5l0.3-0.1l3.5,3.4c0,0,0.3-0.4,0.8-1
		c-0.1,0-1.3-1.1-3.4-3.4c0-0.2,0.1-0.3,0.3-0.3c0,0.1,1.1,1.3,3.4,3.4l0.8-1c-0.1,0-1.3-1.1-3.4-3.4c0-0.2,0.1-0.3,0.3-0.3
		c0,0,1.2,1.1,3.4,3.2c0.1,0,0.4-0.3,0.7-0.8l-3.4-3.5l0.3-0.1l3.4,3.2c0.5-0.4,0.7-0.8,0.7-1.1c-0.1,0-1.2-1.1-3.2-3.2v-0.3h0.1
		l3.4,3.2h0.1c0-0.1,0.2-0.5,0.6-1.1c-0.1,0-1.3-1.1-3.4-3.4l0.3-0.1c0,0,1.2,1.1,3.4,3.2c0.4-0.7,0.6-1.1,0.6-1.3
		c-0.1,0-1.3-1.1-3.4-3.4l0.3-0.1c0,0,1.2,1.1,3.4,3.2c0.4-0.7,0.6-1.1,0.6-1.3l-3.4-3.2c0.1-0.2,0.1-0.3,0.1-0.4h0.1
		c0,0,1.2,1.1,3.4,3.2c0.4-0.5,0.6-0.9,0.6-1.1c-0.1,0-1.3-1.1-3.4-3.4c0-0.2,0.1-0.3,0.3-0.3c0,0.1,1.1,1.3,3.4,3.4l0.4-1.4
		l-3.4-3.2c0.1-0.2,0.1-0.3,0.1-0.4l3.5,3.4c0.3-0.6,0.4-1,0.4-1.3l-3.4-3.5c0-0.2,0.1-0.3,0.3-0.3c0,0.1,1.1,1.3,3.4,3.4
		c0,0,0.1-0.5,0.4-1.4l-3.5-3.4c0.1-0.2,0.1-0.3,0.1-0.4l3.5,3.4c0.2-0.7,0.3-1.2,0.3-1.5c-0.1,0-1.3-1.1-3.4-3.4v-0.4l3.5,3.4
		l0.1-1v-0.6l-3.4-3.5v-0.4c0,0,1.2,1.1,3.4,3.2v-0.3c0-1.4-0.7-2.5-2-3.4c-1.2-1.2-1.8-2-1.8-2.4l3.2,3.1c-0.9-2-2.7-3.9-5.5-5.8
		c-0.2,0-0.3,0-0.3-0.1l-0.3,0.1c-0.4-0.2-0.7-0.3-1-0.3l0.1-0.3l-0.3,0.1h-0.3l0.1-0.3l-0.3,0.1h-0.4v-0.1h0.3v-0.1h-0.1
		c-0.2,0.1-0.4,0.1-0.6,0.1H739l0.1-0.3c-0.1,0-0.2,0-0.4,0.1c-0.7-0.1-1.2-0.1-1.7-0.1V363h0.4v-0.1h-0.1c-0.5,0.1-0.9,0.1-1.3,0.1
		h-0.7c-0.2,0-0.3-0.1-0.3-0.3l-0.3,0.1h-4.6c0-0.2-1-1.3-3-3.2v-0.4l3.2,3.1v-0.1c-1.8-3.2-3.4-4.9-4.9-5.2
		C725.3,357,725.2,357,725.2,357.2z M725.5,357.6c1,0.9,1.5,1.7,1.5,2.5l-0.3,3.5c1.7-0.3,3.5-0.5,5.5-0.6c5.9,0,9.5,0.9,10.8,2.7
		c0.9,0.8,1.4,2,1.4,3.4c0,3.5-1.9,8.5-5.6,15c-5.6,7.9-11.3,11.8-17.2,11.8c-2.1,0-3.1-1.2-3.1-3.5c0-4.6,0.9-13,2.7-25.2
		c-2,0.4-3.5,0.6-4.5,0.7c-1.3-0.2-2-0.4-2-0.7v-0.1c0-0.5,2.3-1.4,6.9-2.7C721.7,362.1,722.9,359.8,725.5,357.6z M715.8,365.8h0.3
		v0.1h-0.3V365.8z M719.1,368c0.1,0,0.6,0.5,1.4,1.4v0.4c-0.1,0-0.7-0.6-1.7-1.7L719.1,368z M721,364.2h0.4v0.1H721V364.2z
		 M726.3,366.4c-1.3,9.2-2,16-2,20.4c0,3.8,0.6,5.9,1.5,6.3h0.1c2.3-1.7,4.5-4.3,6.8-7.7c3.3-6.1,4.9-10.7,4.9-13.9V371
		c0-2.4-2.1-3.9-6.2-4.5C729.1,366.4,727.4,366.4,726.3,366.4z M727.2,366.8h0.6l3.4,3.2h1.5l-3.1-3.2h0.4c2.2,2.2,3.3,3.2,3.5,3.2
		c0.2,0,0.7,0,1.7,0.1l-3.1-3.2h0.4c2.2,2.2,3.5,3.4,3.8,3.4c0.7,0,1.1,0.5,1.1,1.5c-0.2,2.1-1,4.8-2.5,8.2c0.1,0,0.1,0,0.1,0.1
		c-0.1,0-0.3,0.2-0.4,0.6h0.1l-1.1,2.1h-0.1l0.1,0.3h-0.3l0.1,0.3h-0.3l0.1,0.3c-0.2,0-0.4,0.2-0.6,0.7h-0.1l0.1,0.3
		c-0.3,0.2-0.8,0.8-1.3,2c-0.1,0-0.4,0.4-1,1.1c-0.3,0.5-0.8,1.1-1.5,1.8c0,0.4-0.1,0.6-0.3,0.6c0-0.1,0-0.1-0.1-0.1
		c0,0.1-0.1,0.3-0.4,0.4c0-0.9-0.2-1.5-0.7-1.8l-2.8-2.7v-0.4c0.1,0,1.3,1.1,3.5,3.2V387l-3.4-3.5c0-0.2,0.1-0.3,0.3-0.3
		c0,0.1,1,1.1,3.1,3.1h0.1v-1.5l-3.4-3.5v-0.4l3.5,3.4c0-0.8,0-1.4,0.1-1.7c-0.1,0-1.3-1.1-3.4-3.4v-0.4l3.4,3.2l0.1-1.4v-0.1
		l-3.4-3.5v-0.4l3.5,3.4c0-0.5,0-1,0.1-1.7c-0.1,0-1.3-1.1-3.4-3.4v-0.4l3.4,3.2l0.3-1.5c-0.1,0-1.3-1.1-3.4-3.4v-0.4
		c0,0,1.2,1.1,3.4,3.2l0.1-1v-0.6c0-0.1-1.1-1.3-3.4-3.4c0.1-0.2,0.1-0.3,0.1-0.4l3.4,3.2l0.1-1.4v-0.1l-3.4-3.5
		c0-0.2,0.1-0.3,0.3-0.3c0,0.1,1.1,1.2,3.2,3.2c0-0.8,0.1-1.3,0.4-1.3L727.2,366.8z M724.8,387.9h0.1c0.1,0,1.1,1,3.1,3.1l-0.4,0.3
		c0-0.2-0.9-1.2-2.8-3.1V387.9z M725,390.5c0.1,0,0.7,0.6,1.7,1.7c-0.1,0-0.2,0-0.4,0.1L725,391V390.5z M725.8,392.5h0.4v0.1h-0.4
		V392.5z M727.3,361.7c0.1,0,0.6,0.5,1.4,1.4h-0.8l0.1-0.3c-0.5-0.5-0.8-0.7-0.8-0.7C727.2,361.9,727.3,361.8,727.3,361.7z
		 M727.2,363.1h0.6v0.1h-0.6V363.1z M728.7,362.8h1.3v0.1h-1.3V362.8z M728.7,388.9c2.9-3.3,5.3-7.4,7-12.2c0.8-2.5,1.1-4.3,1.1-5.5
		c-0.5-0.4-2.1-0.6-4.8-0.6h-1.4c-0.3,0-0.6,2.3-1,7C729,382.2,728.7,385.9,728.7,388.9z M735.7,362.7v0.1h0.3v-0.1H735.7z
		 M741.8,364.2h0.3v0.1h-0.3V364.2z M742.2,364.5h0.3v0.1h-0.3V364.5z"/>
	<path d="M760.6,356.4h0.4c1.4,0,3.2,1.9,5.3,5.6v0.1h0.7c0.5,0,0.9,0,1-0.1c6.3,0,10.6,1.4,12.8,4.1c2.2,1.9,3.2,4.2,3.2,6.9v0.3
		c0,4.6-2.7,10.7-8.2,18.3c-5.1,5.7-10.1,8.6-14.9,8.6c-3,0-5.4-1.6-7.2-4.9c-0.5-0.9-0.7-2.1-0.7-3.5c0-3.5,0.6-10.1,1.8-19.7h-0.4
		c-1.5,0-3.2-1.2-4.9-3.7c-0.2-0.4-0.3-0.7-0.3-1.1v-0.3c0-1.2,2-2.2,5.9-2.8c0.9-0.2,1.4-1.1,1.4-2.7
		C757.1,360,758.4,358.3,760.6,356.4z M760.6,357.2c0.1,0,0.1,0,0.1,0.1c-0.2,0-0.4,0.1-0.7,0.4c0-0.1,0-0.1-0.1-0.1l-0.3,0.4
		c0.1,0,0.1,0,0.1,0.1c-0.8,0.5-1.1,0.9-1.1,1c0.1,0,0.1,0,0.1,0.1c-0.2,0.1-0.3,0.1-0.4,0.1l0.1,0.3c-0.3,0.4-0.5,0.6-0.7,0.6
		l0.1,0.3h-0.3l0.1,0.3h-0.3c0,0.1,0,0.1,0.1,0.1l-1.1,3.1c-0.2,0.1-0.3,0.1-0.4,0.1v0.1h0.3v0.1c-0.4,0-1.4,0.2-2.8,0.7l-0.3-0.1
		h-0.1v0.1h0.3v0.1H753l-0.3-0.1v0.1c0.1,0,0.1,0,0.1,0.1h-0.4l-0.3-0.1v0.1c0.1,0,0.1,0,0.1,0.1l-0.7,0.1l-0.3-0.1
		c-0.6,0.2-0.8,0.4-0.8,0.6c0.1,0,0.1,0,0.1,0.1c-0.4,0-0.7,0.3-0.8,1c0.5,1.2,1.5,2.4,3,3.4c0.5,0.4,1.3,0.6,2.4,0.8v-0.1
		c-0.1,0-1.1-1-3.1-3.1h0.6c0.1,0,1.1,1,3.1,3.1c-1.3,9.2-2,16.3-2,21.2v0.1c0,2.1,1.4,4.1,4.2,5.9l0.8,0.4V399
		c-0.1,0-1-0.9-2.7-2.7h0.6c2.1,2.1,3.2,3.1,3.4,3.1c0.5,0.1,1,0.1,1.4,0.1h0.3l-3.2-3.2l0.3-0.1l3.5,3.2c0.9,0,1.4-0.2,1.4-0.4
		c-0.1,0-1.1-1-3.1-3.1v-0.1h0.3c0,0,1.2,1.1,3.4,3.2c0.8-0.2,1.3-0.4,1.3-0.6c-0.1,0-1.1-1-3.1-3.1v-0.1h0.3l3.4,3.2
		c0.8-0.3,1.1-0.6,1.1-0.7c-0.1,0-1.2-1.1-3.2-3.2c0.1,0,0.2,0,0.4-0.1c2,2.2,3.1,3.2,3.4,3.2c0.5-0.3,0.8-0.4,1-0.4V397l-3.2-3.4
		l0.3-0.1h0.1c0.1,0,1.2,1.1,3.2,3.2c0.7-0.3,1-0.6,1-0.7l-3.2-3.4l0.3-0.1l3.4,3.2c0.4-0.2,0.8-0.4,1-0.8c-0.1,0-1.2-1.1-3.2-3.2
		c0-0.2,0.1-0.3,0.3-0.3c0,0.1,1.1,1.3,3.4,3.4c0-0.1,0.3-0.4,0.8-0.8l-3.4-3.5l0.3-0.1l3.5,3.4c0,0,0.3-0.4,0.8-1
		c-0.1,0-1.3-1.1-3.4-3.4c0-0.2,0.1-0.3,0.3-0.3c0,0.1,1.1,1.3,3.4,3.4l0.8-1c-0.1,0-1.3-1.1-3.4-3.4c0-0.2,0.1-0.3,0.3-0.3
		c0,0,1.2,1.1,3.4,3.2c0.1,0,0.4-0.3,0.7-0.8l-3.4-3.5l0.3-0.1l3.4,3.2c0.5-0.4,0.7-0.8,0.7-1.1c-0.1,0-1.2-1.1-3.2-3.2v-0.3h0.1
		l3.4,3.2h0.1c0-0.1,0.2-0.5,0.6-1.1c-0.1,0-1.3-1.1-3.4-3.4l0.3-0.1c0,0,1.2,1.1,3.4,3.2c0.4-0.7,0.6-1.1,0.6-1.3
		c-0.1,0-1.3-1.1-3.4-3.4l0.3-0.1c0,0,1.2,1.1,3.4,3.2c0.4-0.7,0.6-1.1,0.6-1.3l-3.4-3.2c0.1-0.2,0.1-0.3,0.1-0.4h0.1
		c0,0,1.2,1.1,3.4,3.2c0.4-0.5,0.6-0.9,0.6-1.1c-0.1,0-1.3-1.1-3.4-3.4c0-0.2,0.1-0.3,0.3-0.3c0,0.1,1.1,1.3,3.4,3.4l0.4-1.4
		l-3.4-3.2c0.1-0.2,0.1-0.3,0.1-0.4l3.5,3.4c0.3-0.6,0.4-1,0.4-1.3l-3.4-3.5c0-0.2,0.1-0.3,0.3-0.3c0,0.1,1.1,1.3,3.4,3.4
		c0,0,0.1-0.5,0.4-1.4l-3.5-3.4c0.1-0.2,0.1-0.3,0.1-0.4l3.5,3.4c0.2-0.7,0.3-1.2,0.3-1.5c-0.1,0-1.3-1.1-3.4-3.4v-0.4l3.5,3.4
		l0.1-1v-0.6l-3.4-3.5v-0.4c0,0,1.2,1.1,3.4,3.2v-0.3c0-1.4-0.7-2.5-2-3.4c-1.2-1.2-1.8-2-1.8-2.4l3.2,3.1c-0.9-2-2.7-3.9-5.5-5.8
		c-0.2,0-0.3,0-0.3-0.1l-0.3,0.1c-0.4-0.2-0.7-0.3-1-0.3l0.1-0.3l-0.3,0.1h-0.3l0.1-0.3l-0.3,0.1h-0.4v-0.1h0.3v-0.1H775
		c-0.2,0.1-0.4,0.1-0.6,0.1h-0.1l0.1-0.3c-0.1,0-0.2,0-0.4,0.1c-0.7-0.1-1.2-0.1-1.7-0.1V363h0.4v-0.1h-0.1
		c-0.5,0.1-0.9,0.1-1.3,0.1h-0.7c-0.2,0-0.3-0.1-0.3-0.3l-0.3,0.1h-4.6c0-0.2-1-1.3-3-3.2v-0.4l3.2,3.1v-0.1
		c-1.8-3.2-3.4-4.9-4.9-5.2C760.6,357,760.6,357,760.6,357.2z M760.8,357.6c1,0.9,1.5,1.7,1.5,2.5l-0.3,3.5c1.7-0.3,3.5-0.5,5.5-0.6
		c5.9,0,9.5,0.9,10.8,2.7c0.9,0.8,1.4,2,1.4,3.4c0,3.5-1.9,8.5-5.6,15c-5.6,7.9-11.3,11.8-17.2,11.8c-2.1,0-3.1-1.2-3.1-3.5
		c0-4.6,0.9-13,2.7-25.2c-2,0.4-3.5,0.6-4.5,0.7c-1.3-0.2-2-0.4-2-0.7v-0.1c0-0.5,2.3-1.4,6.9-2.7
		C757,362.1,758.3,359.8,760.8,357.6z M751.1,365.8h0.3v0.1h-0.3V365.8z M754.5,368c0.1,0,0.6,0.5,1.4,1.4v0.4
		c-0.1,0-0.7-0.6-1.7-1.7L754.5,368z M756.3,364.2h0.4v0.1h-0.4V364.2z M761.7,366.4c-1.3,9.2-2,16-2,20.4c0,3.8,0.6,5.9,1.5,6.3
		h0.1c2.3-1.7,4.5-4.3,6.8-7.7c3.3-6.1,4.9-10.7,4.9-13.9V371c0-2.4-2.1-3.9-6.2-4.5C764.5,366.4,762.8,366.4,761.7,366.4z
		 M762.5,366.8h0.6l3.4,3.2h1.5l-3.1-3.2h0.4c2.2,2.2,3.3,3.2,3.5,3.2c0.2,0,0.7,0,1.7,0.1l-3.1-3.2h0.4c2.2,2.2,3.5,3.4,3.8,3.4
		c0.7,0,1.1,0.5,1.1,1.5c-0.2,2.1-1,4.8-2.5,8.2c0.1,0,0.1,0,0.1,0.1c-0.1,0-0.3,0.2-0.4,0.6h0.1l-1.1,2.1h-0.1l0.1,0.3h-0.3
		l0.1,0.3h-0.3l0.1,0.3c-0.2,0-0.4,0.2-0.6,0.7H768l0.1,0.3c-0.3,0.2-0.8,0.8-1.3,2c-0.1,0-0.4,0.4-1,1.1c-0.3,0.5-0.8,1.1-1.5,1.8
		c0,0.4-0.1,0.6-0.3,0.6c0-0.1,0-0.1-0.1-0.1c0,0.1-0.1,0.3-0.4,0.4c0-0.9-0.2-1.5-0.7-1.8l-2.8-2.7v-0.4c0.1,0,1.3,1.1,3.5,3.2V387
		l-3.4-3.5c0-0.2,0.1-0.3,0.3-0.3c0,0.1,1,1.1,3.1,3.1h0.1v-1.5l-3.4-3.5v-0.4l3.5,3.4c0-0.8,0-1.4,0.1-1.7c-0.1,0-1.3-1.1-3.4-3.4
		v-0.4l3.4,3.2l0.1-1.4v-0.1l-3.4-3.5v-0.4l3.5,3.4c0-0.5,0-1,0.1-1.7c-0.1,0-1.3-1.1-3.4-3.4v-0.4l3.4,3.2l0.3-1.5
		c-0.1,0-1.3-1.1-3.4-3.4v-0.4c0,0,1.2,1.1,3.4,3.2l0.1-1v-0.6c0-0.1-1.1-1.3-3.4-3.4c0.1-0.2,0.1-0.3,0.1-0.4l3.4,3.2l0.1-1.4v-0.1
		l-3.4-3.5c0-0.2,0.1-0.3,0.3-0.3c0,0.1,1.1,1.2,3.2,3.2c0-0.8,0.1-1.3,0.4-1.3L762.5,366.8z M760.1,387.9h0.1c0.1,0,1.1,1,3.1,3.1
		l-0.4,0.3c0-0.2-0.9-1.2-2.8-3.1V387.9z M760.4,390.5c0.1,0,0.7,0.6,1.7,1.7c-0.1,0-0.2,0-0.4,0.1l-1.3-1.4V390.5z M761.1,392.5
		h0.4v0.1h-0.4V392.5z M762.7,361.7c0.1,0,0.6,0.5,1.4,1.4h-0.8l0.1-0.3c-0.5-0.5-0.8-0.7-0.8-0.7
		C762.6,361.9,762.7,361.8,762.7,361.7z M762.5,363.1h0.6v0.1h-0.6V363.1z M764.1,362.8h1.3v0.1h-1.3V362.8z M764.1,388.9
		c2.9-3.3,5.3-7.4,7-12.2c0.8-2.5,1.1-4.3,1.1-5.5c-0.5-0.4-2.1-0.6-4.8-0.6H766c-0.3,0-0.6,2.3-1,7
		C764.4,382.2,764.1,385.9,764.1,388.9z M771.1,362.7v0.1h0.3v-0.1H771.1z M777.1,364.2h0.3v0.1h-0.3V364.2z M777.6,364.5h0.3v0.1
		h-0.3V364.5z"/>
	<path d="M793.2,353.6h0.3c1.1,0,2.3,1.2,3.7,3.5c0.4,0.8,0.6,1.8,0.6,3c0,0.6-0.4,3.6-1.1,9c-0.4,4.8-0.6,9.7-0.6,14.6v1
		c0,6.1,0.3,9.1,0.7,9.1c1.5,0.2,2.7,0.3,3.5,0.3c2.6,0,4.9-1.5,6.9-4.4l0.7-0.4c1.8,0.4,3.8,1.7,5.8,3.8c0.7,0.9,1,1.7,1,2.4v0.3
		c0,2.9-4.8,5.3-14.3,7.2c-1.4,0.1-2.4,0.1-3,0.1c-5.1,0-9-1.8-11.7-5.5c-0.8-1.1-1.3-3.8-1.3-8v-3.7c0-7.6,0.7-16.1,2-25.5
		C787.8,355.9,790.1,353.6,793.2,353.6z M792.4,354.1v0.1h0.3v0.1c-0.3,0-0.5,0-0.7,0.1l-0.3-0.1c-0.8,0.3-1.1,0.6-1.1,1l-0.3-0.1
		h-0.1c-0.1,0-0.4,0.3-0.8,0.8c0.1,0,0.1,0,0.1,0.1c-1.1,0.6-1.9,2.2-2.5,4.8l-0.4,1.8h0.1l-0.8,6.2l0.1,0.3
		c-0.6,5-0.8,8.9-0.8,11.5l-0.1,0.3c0,0.1,0,0.1,0.1,0.1l-0.1,0.7v2c0,1.5,0,2.6-0.1,3.4c0.1,6.3,0.4,9.4,1,9.4
		c1.8,2.4,3.4,3.9,4.9,4.4v-0.1c-0.1,0-1-0.8-2.5-2.5h0.3c0.2,0,1.3,1.1,3.5,3.2l2.2,0.6l-3-3.1h0.6c2.2,2.2,3.3,3.2,3.5,3.2
		c0.8,0.1,1.3,0.1,1.5,0.1l-3.1-3.2h0.4c0,0,1.2,1.1,3.4,3.2h1.3c0.2,0,0.3-0.1,0.3-0.3c-0.1,0-1.1-1-3.1-3.1h0.4
		c0,0,1.2,1.1,3.4,3.2c0.6-0.1,1.1-0.1,1.5-0.1l-3.1-3.2l0.3-0.1l3.4,3.2c0.8-0.2,1.3-0.3,1.4-0.3l-3.1-3.2l0.3-0.1
		c0.1,0,1.2,1.1,3.2,3.2c0.9-0.2,1.4-0.4,1.4-0.6c-0.1,0-1.1-1-3.1-3.1v-0.1h0.4l3.4,3.2c0.6-0.3,1-0.4,1.1-0.4l-3.2-3.4
		c0.1,0,0.2,0,0.4-0.1l3.2,3.4c0.6-0.3,1-0.4,1.3-0.4V400l-3.2-3.4h0.4l3.4,3.2c0.8-0.3,1.3-0.5,1.3-0.7c-1.4-1.2-2.6-2.3-3.4-3.2
		l0.3-0.1l3.7,3.4c0-0.2,0.3-0.4,1-0.6v-0.1l-3.4-3.4v-0.1h0.4v0.3l0.3-0.1c0,0.1,1,1.1,3.1,3.1c0.1,0,0.5-0.3,1-1l-3.4-3.2
		c0.1-0.2,0.1-0.3,0.1-0.4l3.5,3.4c0.2-0.6,0.3-1,0.3-1.3c-2.5-2.6-3.8-4-3.8-4.2v-0.1l3.7,3.5v-0.1c-0.7-1.4-2-2.6-3.9-3.8v0.1
		c0.1,0,0.1,0,0.1,0.1h-0.1c-0.7-0.6-1.3-0.8-1.7-0.8l0.1-0.3c-0.2,0.1-0.3,0.1-0.4,0.1h-0.1V390h0.3v-0.1h-0.3l-0.6,0.7h0.1
		c-0.1,0.4-0.3,0.6-0.4,0.6v-0.3h-0.1c0,0.3-0.3,0.6-0.8,1l0.1,0.3l-0.1,0.3l-0.3-0.1c-0.1,0-0.4,0.3-0.8,0.8l0.1,0.3
		c-0.2,0-0.3,0-0.3,0.1l-0.3-0.1c-0.5,0.4-0.9,0.6-1.1,0.6v0.1h0.3v0.1c-0.2,0-0.4,0-0.6,0.1c-0.2-0.1-0.3-0.1-0.4-0.1l0.1,0.3h-0.3
		l-0.3-0.1h-0.1v0.1h0.3v0.1h-0.4c-0.2-0.1-0.3-0.1-0.4-0.1l0.1,0.3H798v-0.1h0.6v-0.1h-0.3l-1.3,0.1h-0.3v-0.1h0.4v-0.1h-0.3
		l-0.7,0.1l-0.8-0.1v-0.1h0.4l-3.1-3.2v-0.4l3.4,3.2c-0.2-1.8-0.6-2.7-1-2.7c-1.9-1.8-2.8-2.9-2.8-3.4v-0.1l3.4,3.2v-1.5l-3.5-3.7
		v-0.4c0,0,1.2,1.1,3.4,3.2v-1.7l-3.4-3.5v-0.4c0,0,1.2,1.1,3.4,3.2v-1.7l-3.4-3.5v-0.4c0,0,1.2,1.1,3.4,3.2V382l-3.4-3.5V378
		c0,0,1.2,1.1,3.4,3.2v-1.7l-3.4-3.5v-0.6c0,0,1.2,1.1,3.4,3.2l0.1-1.4c0-0.1-1.2-1.3-3.5-3.5c0.1-0.2,0.1-0.3,0.1-0.4l3.4,3.2v-1.7
		l-3.4-3.5V371l3.5,3.4v-1.7l-3.4-3.5v-0.4l3.4,3.2h0.1v-1.5l-3.4-3.5v-0.4l3.5,3.4c0-0.8,0-1.4,0.1-1.7c-0.1,0-1.3-1.1-3.4-3.4
		v-0.6l3.4,3.2l0.1-0.7v-0.7l-3.4-3.5v-0.3h0.1l3.4,3.2c0.1-0.9,0.2-1.4,0.3-1.5c-0.1,0-1.3-1.2-3.5-3.5v-0.3h0.1
		c0,0,1.2,1.1,3.4,3.2h0.1v-0.1l0.1-1.4c-0.1,0-1.3-1.1-3.4-3.4v-0.4l3.4,3.2h0.1v-1.5l-3.4-3.5v-0.4l3.2,3.1v-0.1
		c0-1.6-1.1-3.1-3.4-4.6l-0.7,0.1c-0.2-0.1-0.3-0.1-0.4-0.1H792.4z M793.1,354.7h0.1c0.2,0.8,0.3,1.4,0.3,1.7
		c-1.2,7.2-1.8,15.4-1.8,24.5c0,8.9,0.8,13.4,2.5,13.4c1.4,0.7,3.5,1,6.3,1c2.8,0,5.3-1.5,7.5-4.6c1.5,0.4,2.2,1,2.2,1.8v0.3
		c0,1.6-3.7,3.5-11,5.8c-1.4,0.3-3,0.4-4.8,0.4h-0.6c-5.7,0-8.6-1.6-8.6-4.8c-0.1-3-0.1-5.3-0.1-6.8c0-7,0.7-15.8,2-26.3
		c0.7-2.6,1.9-4.5,3.8-5.6C791.9,354.9,792.6,354.7,793.1,354.7z M790.1,355.4h0.3v0.1h-0.3V355.4z M791,354.8h0.3v0.1H791V354.8z
		 M791.2,354.7h0.3v0.1h-0.3V354.7z M791.5,354.5h0.3v0.1h-0.3V354.5z M793.5,393.4h0.3v0.1h-0.3V393.4z M793.9,393.6h0.3v0.1h-0.3
		V393.6z M794.2,393.8h0.3v0.1h-0.3V393.8z M794.5,393.9h0.4v0.1h-0.4V393.9z M794.9,394.1h0.4v0.1h-0.4V394.1z M803.6,393.9h0.3
		v0.1h-0.3V393.9z M803.9,393.8h0.3v0.1h-0.3V393.8z M804.3,393.5h0.3v0.1h-0.3V393.5z"/>
</g>
<g>
</g>
<g>
</g>
<g>
</g>
<g>
</g>
<g>
</g>
<g>
</g>
<g>
</g>
<g>
</g>
<g>
</g>
<g>
</g>
<g>
</g>
<g>
</g>
<g>
</g>
<g>
</g>
<g>
</g>
</svg>
